<?xml version="1.0" encoding="utf-8"?>
<!-- Generator: Adobe Illustrator 25.0.0, SVG Export Plug-In . SVG Version: 6.00 Build 0)  -->
<svg version="1.1" id="Layer_1" xmlns="http://www.w3.org/2000/svg" xmlns:xlink="http://www.w3.org/1999/xlink" x="0px" y="0px"
	 viewBox="0 0 236 236" style="enable-background:new 0 0 236 236;" xml:space="preserve">
<style type="text/css">
	.st0{fill:#30BAD2;}
	.st1{fill:#FFFFFF;}
</style>
<circle class="st0" cx="118" cy="118" r="118"/>
<g id="Layer_2-2">
	<g id="Layer_1-2-2">
		<path class="st1" d="M189.4,87.9c-0.9-3.2-4.2-5.1-7.4-4.2c-1.5,0.4-2.9,1.4-3.7,2.8l-1,1.8c-1-0.5-2.2-0.2-2.7,0.7l-5.1,8.7
			l-1.8-1c-0.9-0.7-2.1-0.5-2.8,0.4s-0.5,2.1,0.4,2.8c0.1,0.1,0.1,0.1,0.2,0.1l0.2,0.1l1.8,1l-17,29.5l-4.2,11.2l-2,3.7
			c-1.2,2-1,4.5,0.3,6.5l-4.5,5.6l-1.3-3.2c-0.9-2.1-3.2-3-5.3-2.2c-0.8,0.3-1.4,0.9-1.9,1.6L131,155l-0.7-8
			c-0.3-2.2-2.3-3.8-4.5-3.5c-1.5,0.2-2.8,1.2-3.3,2.6l0,0c-0.3,1,0.2,2.2,1.3,2.5c0.2,0.1,0.4,0.1,0.6,0.2c0.9,0,1.6-0.5,1.9-1.4
			l0,0l0.7,8.1c0.2,2.2,2.2,3.8,4.4,3.6c1.2-0.1,2.3-0.8,3-1.9l0.8-1.2l1.3,3.1c0.9,2.1,3.2,3,5.3,2.2c0.6-0.3,1.2-0.7,1.6-1.2
			l4.7-5.9c0.5,0.1,1.1,0.2,1.6,0.2c2.1,0,4.1-1.1,5.2-3l2-3.3l7.5-9.3l17.2-29.9l1.8,1c1,0.5,1.3,1.8,0.8,2.7l0,0l-8,13.9
			c-0.6,0.9-0.3,2.2,0.6,2.7c0.9,0.6,2.2,0.3,2.7-0.6l8-13.9c1.7-2.9,0.7-6.5-2.2-8.2l0,0l-1.8-1l5-8.7c0.6-0.9,0.2-2.2-0.7-2.7
			l1-1.8C189.6,91.1,189.8,89.5,189.4,87.9z M181.8,88.5c0.3-0.5,0.7-0.8,1.2-0.9c0.5-0.1,1.1,0,1.5,0.2c0.5,0.3,0.8,0.7,0.9,1.2
			c0.1,0.5,0.1,1.1-0.2,1.5l-1,1.8l-3.5-2L181.8,88.5z M154.5,144.4l-1-0.6l-3-1.7l2.8-7.6l6.3,3.6L154.5,144.4z M148.5,150.1
			c-0.8-0.6-1.1-1.7-0.6-2.6l1-1.8l3.5,2l-1,1.7c-0.6,1-1.8,1.3-2.7,0.7L148.5,150.1L148.5,150.1z M162,134.8l-6.9-4l16-27.7l6.9,4
			L162,134.8z M180,103.6l-6.9-4l4-6.9l6.9,4L180,103.6z"/>
		<path class="st1" d="M109.8,143.2l-15.9,13l-4.3-4.3c-0.8-0.8-2.1-0.8-2.8,0c-0.8,0.8-0.8,2.1,0,2.8l4.3,4.2
			c1.6,1.5,4.1,1.5,5.6,0l15.9-13c0.7-0.8,0.6-2.1-0.2-2.8C111.7,142.5,110.5,142.5,109.8,143.2L109.8,143.2z"/>
		<path class="st1" d="M77.4,154.5c0,9.4,7.6,17,17,17c9.4,0,17-7.6,17-17c0,0,0,0,0,0c0-1.1-0.9-2-2-2s-2,0.9-2,2
			c0,7.2-5.8,13-13,13c-7.2,0-13-5.8-13-13s5.8-13,13-13c2.8,0,5.6,0.9,7.8,2.6c0.9,0.7,2.2,0.5,2.8-0.4c0.7-0.9,0.5-2.2-0.4-2.8
			c-7.5-5.7-18.2-4.1-23.8,3.4C78.6,147.2,77.4,150.8,77.4,154.5z"/>
		<path class="st1" d="M85.4,77.4c-1.1,0-2,0.9-2,2s0.9,2,2,2h60.1c1.1,0,2-0.9,2-2s-0.9-2-2-2H85.4z"/>
		<path class="st1" d="M137.5,87.8h-44c-1.1,0-2,0.9-2,2s0.9,2,2,2l0,0h44c1.1,0,2-0.9,2-2S138.6,87.8,137.5,87.8z"/>
		<path class="st1" d="M127.5,105.6c0-1.1-0.9-2-2-2h-40c-1.1,0-2,0.9-2,2s0.9,2,2,2h40C126.6,107.6,127.5,106.7,127.5,105.6
			C127.5,105.6,127.5,105.6,127.5,105.6z"/>
		<path class="st1" d="M147.5,103.6h-14c-1.1,0-2,0.9-2,2s0.9,2,2,2h14c1.1,0,2-0.9,2-2S148.6,103.6,147.5,103.6L147.5,103.6z"/>
		<path class="st1" d="M105.4,117.6c1.1,0,2-0.9,2-2c0-1.1-0.9-2-2-2h-20c-1.1,0-2,0.9-2,2c0,1.1,0.9,2,2,2H105.4z"/>
		<path class="st1" d="M113.5,117.6h14c1.1,0,2-0.9,2-2c0-1.1-0.9-2-2-2h-14c-1.1,0-2,0.9-2,2C111.5,116.7,112.4,117.6,113.5,117.6z
			"/>
		<path class="st1" d="M159.5,151.5c-1.1,0-2,0.9-2,2v20c0,1.1-0.9,2-2,2c0,0,0,0-0.1,0h-80c-1.1,0-2-0.9-2-2V65.4c0-1.1,0.9-2,2-2
			c0,0,0,0,0,0h80c1.1,0,2,0.9,2,2V103c0,1.1,0.9,2,2,2c1.1,0,2-0.9,2-2V65.4c0-3.3-2.7-6-6-6c0,0,0,0,0,0h-80c-3.3,0-6,2.7-6,6
			v108.1c0,3.3,2.7,6,6,6h80c3.3,0,6-2.7,6-6l0,0v-20.1C161.5,152.4,160.6,151.5,159.5,151.5z"/>
	</g>
</g>
</svg>
