<?xml version="1.0" encoding="utf-8"?>
<!-- Generator: Adobe Illustrator 25.0.0, SVG Export Plug-In . SVG Version: 6.00 Build 0)  -->
<svg version="1.1" id="Layer_1" xmlns="http://www.w3.org/2000/svg" xmlns:xlink="http://www.w3.org/1999/xlink" x="0px" y="0px"
	 viewBox="0 0 236 236" style="enable-background:new 0 0 236 236;" xml:space="preserve">
<style type="text/css">
	.st0{fill:#30BAD2;}
	.st1{fill:none;stroke:#FFFFFF;stroke-width:3;stroke-miterlimit:10;}
	.st2{fill:#30BAD2;stroke:#FFFFFF;stroke-width:3;stroke-miterlimit:10;}
</style>
<circle class="st0" cx="118" cy="118" r="118"/>
<g>
	<g>
		<path class="st1" d="M91,177.2h53.7c3.5,0,6.3-2.8,6.3-6.3V65.1c0-3.5-2.8-6.3-6.3-6.3H91c-3.5,0-6.3,2.8-6.3,6.3v105.8
			C84.6,174.4,87.5,177.2,91,177.2z"/>
		<path class="st1" d="M84.6,165.6v5.3c0,3.5,2.8,6.3,6.3,6.3h53.7c3.5,0,6.3-2.8,6.3-6.3v-5.6L84.6,165.6z M117.8,175.2
			c-2.2,0-4-1.8-4-4c0-2.2,1.8-4,4-4c2.2,0,4,1.8,4,4C121.8,173.4,120,175.2,117.8,175.2z"/>
		<path class="st1" d="M144.7,58.8H91c-3.5,0-6.3,2.8-6.3,6.3v5.6l66.4-0.3v-5.3C151,61.6,148.2,58.8,144.7,58.8z M128.1,66.4h-20.6
			c-0.9,0-1.6-0.7-1.6-1.6s0.7-1.6,1.6-1.6h20.6c0.9,0,1.6,0.7,1.6,1.6S129,66.4,128.1,66.4z"/>
	</g>
	<path class="st1" d="M131.5,150.5h-25.1c-2.8,0-5.1-2.3-5.1-5.1v0c0-2.8,2.3-5.1,5.1-5.1h25.1c2.8,0,5.1,2.3,5.1,5.1v0
		C136.6,148.2,134.3,150.5,131.5,150.5z"/>
	<path class="st2" d="M163.3,103.3c0.3-0.3,0.3-0.7,0-1.2c-0.1-0.3-0.6-0.6-1-0.6L132,97.7h-0.1c-0.4,0-0.7,0.3-0.9,0.6
		c-0.3,0.3-0.3,0.9-0.1,1.2l4.1,8.1c-4.6,3.1-23.8,17.7-14.8,35.4c0.3,0.6,0.9,0.7,1.5,0.6h0.1l0,0c0.4-0.1,0.7-0.7,0.7-1.2
		c0-0.3-0.4-9,10.6-16.4c2.8-1.8,5.8-3.5,8.7-5l4.4,8.9c0.1,0.4,0.6,0.6,1,0.7c0.4,0,0.9-0.3,1-0.7L163.3,103.3z"/>
</g>
</svg>
