<?xml version="1.0" encoding="utf-8"?>
<!-- Generator: Adobe Illustrator 25.0.0, SVG Export Plug-In . SVG Version: 6.00 Build 0)  -->
<svg version="1.1" xmlns="http://www.w3.org/2000/svg" xmlns:xlink="http://www.w3.org/1999/xlink" x="0px" y="0px"
	 viewBox="0 0 236 236" style="enable-background:new 0 0 236 236;" xml:space="preserve">
<style type="text/css">
	.st0{fill:#30BAD2;}
	.st1{fill:#FFFFFF;stroke:#FFFFFF;stroke-miterlimit:10;}
</style>
<g id="Layer_1">
	<circle class="st0" cx="118" cy="118" r="118"/>
</g>
<g id="Layer_2">
	<g>
		<g id="_011---Water-Supply">
			<path id="Shape" class="st1" d="M98.2,63.1c-1.5,0-2.8,1.3-2.8,2.8v70.9h-0.8c-8.2,0-14.9,6.7-14.9,14.9v18.8
				c-0.2,8.2,6.3,15,14.6,15.2c8.2,0.2,15-6.3,15.2-14.6c0-0.2,0-0.4,0-0.6c0.1-1.3,1.2-2.3,2.5-2.2c1.2,0.1,2.2,1,2.2,2.2v5.8
				c-0.9,0.4-1.6,1.1-1.8,2.1l-0.8,3.1c-0.2,0.9,0,1.9,0.6,2.7c0.6,0.8,1.5,1.2,2.5,1.2h11.7c1.7,0,3.1-1.4,3.1-3.2
				c0-0.2,0-0.5-0.1-0.7l-0.8-3.1c-0.2-0.9-0.9-1.7-1.8-2.1v-5.8c-0.2-8.2-7-14.8-15.2-14.6c-8,0.2-14.4,6.6-14.6,14.6
				c0.1,1.3-0.9,2.4-2.2,2.5c-1.3,0.1-2.4-0.9-2.5-2.2c0-0.1,0-0.2,0-0.3v-18.8c0-1.3,1-2.4,2.3-2.4c0,0,0,0,0,0h0.8
				c0,1.7,1.4,3.1,3.1,3.1c0,0,0,0,0,0h26.8c-0.1,0.8-0.1,1.6-0.2,2.3c0,12.1,10.2,21.9,22.5,21.1c10.5-0.7,19.1-9.2,19.8-19.8
				c0.8-12.3-9-22.5-21.1-22.5c0,0,0,0,0,0c-0.3,0-0.5,0-0.8,0V66c0-1.5-1.2-2.8-2.8-2.8L98.2,63.1z M114.6,182.2l0.8-3.1h10.1
				l0.8,3.1H114.6z M94.6,146.2c-3,0-5.5,2.5-5.5,5.5v18.8c-0.1,3,2.3,5.6,5.3,5.7c3,0.1,5.6-2.3,5.7-5.3c0-0.1,0-0.3,0-0.4
				c0.2-6.5,5.6-11.6,12-11.5c6.3,0.2,11.3,5.2,11.5,11.5v5.5h-6.3v-5.5c-0.1-3-2.7-5.4-5.7-5.3c-2.9,0.1-5.2,2.4-5.3,5.3
				c0.2,6.5-5,11.9-11.5,12c-6.5,0.2-11.9-5-12-11.5c0-0.2,0-0.4,0-0.6v-18.8c0-6.5,5.3-11.8,11.8-11.8h0.8v6.3L94.6,146.2z
				 M107.9,149.3v-17.2h9.4v17.2L107.9,149.3z M142.4,68.6V134c-8,1.5-14.4,7.5-16.5,15.3h-5.5v-17.3c0-1.7-1.4-3.1-3.1-3.1l0,0
				h-9.4c-1.7,0-3.1,1.4-3.1,3.1c0,0,0,0,0,0v17.2h-6.3V68.6c0-1.2,1-2.2,2.2-2.2h39.6C141.5,66.5,142.4,67.4,142.4,68.6z
				 M146.3,172.8c-10,0-18-8.1-18-18c0-10,8.1-18,18-18c10,0,18,8.1,18,18S156.3,172.8,146.3,172.8L146.3,172.8z"/>
			<path id="Shape-2" class="st1" d="M146.3,141.5c-1.2,0-2.2,0.6-2.8,1.7c-2,3.8-5.9,13.1-5.9,16.4c0,4.8,3.9,8.6,8.6,8.6
				s8.6-3.9,8.6-8.6c0-3.2-3.8-12.6-5.9-16.4C148.5,142.1,147.5,141.5,146.3,141.5z M146.3,165c-3,0-5.5-2.5-5.5-5.5c0,0,0,0,0,0
				c0-2.3,3.4-11,5.5-14.9c2.1,3.9,5.5,12.6,5.5,14.9C151.8,162.5,149.4,165,146.3,165C146.3,165,146.3,165,146.3,165z"/>
		</g>
		<path class="st1" d="M118.8,80.8h3.3c0.9,0,1.6-0.7,1.6-1.6v-3.3c0-0.9-0.7-1.6-1.6-1.6h-3.3c-0.9,0-1.6,0.7-1.6,1.6v3.3
			C117.2,80,117.9,80.8,118.8,80.8z"/>
		<path class="st1" d="M118.8,92.2h3.3c0.9,0,1.6-0.7,1.6-1.6v-3.3c0-0.9-0.7-1.6-1.6-1.6h-3.3c-0.9,0-1.6,0.7-1.6,1.6v3.3
			C117.2,91.5,117.9,92.2,118.8,92.2z"/>
		<path class="st1" d="M118.8,103.6h3.3c0.9,0,1.6-0.7,1.6-1.6v-3.3c0-0.9-0.7-1.6-1.6-1.6h-3.3c-0.9,0-1.6,0.7-1.6,1.6v3.3
			C117.2,102.9,117.9,103.6,118.8,103.6z"/>
		<path class="st1" d="M118.8,115.1h3.3c0.9,0,1.6-0.7,1.6-1.6v-3.2c0-0.9-0.7-1.6-1.6-1.6h-3.3c-0.9,0-1.6,0.7-1.6,1.6v3.3
			C117.2,114.3,117.9,115,118.8,115.1z"/>
		<path class="st1" d="M118.8,126.5h3.3c0.9,0,1.6-0.7,1.6-1.6c0,0,0,0,0,0v-3.3c0-0.9-0.7-1.6-1.6-1.6h-3.3c-0.9,0-1.6,0.7-1.6,1.6
			v3.3C117.2,125.7,117.9,126.5,118.8,126.5C118.8,126.5,118.8,126.5,118.8,126.5z"/>
		<path class="st1" d="M107.4,80.8h3.3c0.9,0,1.6-0.7,1.6-1.6v-3.3c0-0.9-0.7-1.6-1.6-1.6h-3.3c-0.9,0-1.6,0.7-1.7,1.6c0,0,0,0,0,0
			v3.3C105.8,80,106.5,80.8,107.4,80.8C107.4,80.8,107.4,80.8,107.4,80.8z"/>
		<path class="st1" d="M107.4,92.2h3.3c0.9,0,1.6-0.7,1.6-1.6v-3.3c0-0.9-0.7-1.6-1.6-1.6h-3.3c-0.9,0-1.7,0.7-1.7,1.6c0,0,0,0,0,0
			v3.3C105.8,91.5,106.5,92.2,107.4,92.2C107.4,92.2,107.4,92.2,107.4,92.2z"/>
		<path class="st1" d="M107.4,103.6h3.3c0.9,0,1.6-0.7,1.6-1.6v-3.3c0-0.9-0.7-1.6-1.6-1.6h-3.3c-0.9,0-1.6,0.7-1.7,1.6c0,0,0,0,0,0
			v3.3C105.8,102.9,106.5,103.6,107.4,103.6C107.4,103.6,107.4,103.6,107.4,103.6z"/>
		<path class="st1" d="M107.4,115.1h3.3c0.9,0,1.6-0.7,1.6-1.6v-3.2c0-0.9-0.7-1.6-1.6-1.6h-3.3c-0.9,0-1.6,0.7-1.7,1.6c0,0,0,0,0,0
			v3.3C105.8,114.3,106.5,115.1,107.4,115.1z"/>
		<path class="st1" d="M107.4,126.5h3.3c0.9,0,1.6-0.7,1.6-1.6v-3.3c0-0.9-0.7-1.6-1.6-1.6h-3.3c-0.9,0-1.6,0.7-1.7,1.6c0,0,0,0,0,0
			v3.2C105.7,125.7,106.5,126.5,107.4,126.5C107.4,126.5,107.4,126.5,107.4,126.5z"/>
		<path class="st1" d="M133.5,74.2h-3.3c-0.9,0-1.6,0.7-1.6,1.6v3.3c0,0.9,0.7,1.6,1.6,1.6h3.3c0.9,0,1.6-0.7,1.6-1.6v-3.3
			C135.2,75,134.4,74.2,133.5,74.2C133.5,74.2,133.5,74.2,133.5,74.2z"/>
		<path class="st1" d="M133.5,85.7h-3.3c-0.9,0-1.6,0.7-1.6,1.6v3.3c0,0.9,0.7,1.6,1.6,1.6h3.3c0.9,0,1.6-0.7,1.6-1.6v-3.3
			C135.2,86.4,134.4,85.7,133.5,85.7C133.5,85.7,133.5,85.7,133.5,85.7z"/>
		<path class="st1" d="M133.5,97.1h-3.3c-0.9,0-1.6,0.7-1.6,1.6v3.3c0,0.9,0.7,1.6,1.6,1.6h3.3c0.9,0,1.6-0.7,1.6-1.6c0,0,0,0,0,0
			v-3.3C135.2,97.8,134.4,97.1,133.5,97.1C133.5,97.1,133.5,97.1,133.5,97.1z"/>
		<path class="st1" d="M133.5,108.5h-3.3c-0.9,0-1.6,0.7-1.6,1.6v3.3c0,0.9,0.7,1.6,1.6,1.6h3.3c0.9,0,1.6-0.7,1.6-1.6v-3.3
			C135.2,109.3,134.5,108.5,133.5,108.5C133.5,108.5,133.5,108.5,133.5,108.5z"/>
		<path class="st1" d="M133.5,119.9h-3.3c-0.9,0-1.6,0.7-1.6,1.6v3.3c0,0.9,0.7,1.6,1.6,1.6h3.3c0.9,0,1.6-0.7,1.6-1.6v-3.3
			C135.2,120.7,134.4,119.9,133.5,119.9C133.5,119.9,133.5,119.9,133.5,119.9z"/>
	</g>
</g>
</svg>
