<?xml version="1.0" encoding="utf-8"?>
<!-- Generator: Adobe Illustrator 25.0.0, SVG Export Plug-In . SVG Version: 6.00 Build 0)  -->
<svg version="1.1" xmlns="http://www.w3.org/2000/svg" xmlns:xlink="http://www.w3.org/1999/xlink" x="0px" y="0px"
	 viewBox="0 0 2091.5 737.7" style="enable-background:new 0 0 2091.5 737.7;" xml:space="preserve">
<style type="text/css">
	.st0{display:none;}
	.st1{display:inline;}
	.st2{fill:#30BAD2;}
	.st3{font-family:'ArialMT';}
	.st4{font-size:12px;}
</style>
<g id="Layer_1">
	<g id="Layer_1_2_" class="st0">
		<g id="Layer_1_1_" class="st1">
			<g>
				<path class="st2" d="M329.5,160.4l1.7-4.7l22.8,8.1l-1.7,4.7L329.5,160.4z"/>
				<path class="st2" d="M260.5,155.2l-0.3-5l24.2-1.5l0.3,5L260.5,155.2z"/>
				<path class="st2" d="M195.8,182.2l-2.7-4.2l20.6-12.9l2.7,4.2L195.8,182.2z"/>
				<path class="st2" d="M149.2,233l-4-3l14.4-19.5l4,3L149.2,233z"/>
				<path class="st2" d="M120.7,295.3l-4.8-1.5l7.1-23.2l4.8,1.5L120.7,295.3z"/>
				<path class="st2" d="M110.2,361.8l-5-0.5l2.6-24.1l5,0.5L110.2,361.8z"/>
				<path class="st2" d="M108.8,428.4l-5,0.1l-0.5-24.2l5-0.1L108.8,428.4z"/>
				<path class="st2" d="M116,494.7l-5,0.8l-3.7-24l5-0.8L116,494.7z"/>
				<path class="st2" d="M133.3,559.5l-4.8,1.6l-7.6-23l4.8-1.6L133.3,559.5z"/>
				<path class="st2" d="M163.6,619.9l-4.3,2.6l-12.5-20.8l4.3-2.6L163.6,619.9z"/>
				<path class="st2" d="M209.8,670.1l-3.3,3.8l-18.2-16l3.3-3.8L209.8,670.1z"/>
				<path class="st2" d="M270.3,702.6l-1.9,4.6l-22.5-9.1l1.9-4.6L270.3,702.6z"/>
				<path class="st2" d="M337.1,715.5l-0.5,5l-24.1-2.7l0.5-5L337.1,715.5z"/>
				<path class="st2" d="M404.1,714.6l0.3,5l-24.2,1.3l-0.3-5L404.1,714.6z"/>
				<path class="st2" d="M470.2,704.5l1,4.9l-23.7,4.9l-1-4.9L470.2,704.5z"/>
				<path class="st2" d="M533.7,681.3l2.1,4.6l-22,10.1l-2.1-4.6L533.7,681.3z"/>
				<path class="st2" d="M589,641.5l3.3,3.8l-18.2,16l-3.3-3.8L589,641.5z"/>
				<path class="st2" d="M631,588l4.2,2.8L621.7,611l-4.2-2.8L631,588z"/>
				<path class="st2" d="M660.9,528l4.6,2l-9.8,22.2l-4.6-2L660.9,528z"/>
				<path class="st2" d="M683.7,465.9l4.7,1.6l-7.9,22.9l-4.7-1.6L683.7,465.9z"/>
				<path class="st2" d="M703.9,404.3l4.8,1.6l-7.5,23l-4.8-1.6L703.9,404.3z"/>
				<path class="st2" d="M725.9,342.1l4.7,1.8l-8.5,22.7l-4.7-1.8L725.9,342.1z"/>
				<path class="st2" d="M753.2,281.5l4.5,2.2l-10.8,21.7l-4.5-2.2L753.2,281.5z"/>
				<path class="st2" d="M789.6,225l4,3l-14.3,19.5l-4-3L789.6,225z"/>
				<path class="st2" d="M837.4,177.1l3.3,3.8l-18.4,15.8l-3.3-3.8L837.4,177.1z"/>
				<path class="st2" d="M895.4,141.9l2.3,4.5l-21.6,11l-2.3-4.5L895.4,141.9z"/>
				<path class="st2" d="M959.4,120.1l1.3,4.8l-23.4,6.4l-1.3-4.8L959.4,120.1z"/>
				<path class="st2" d="M1025.5,109.6l0.6,5l-24.1,2.7l-0.6-5L1025.5,109.6z"/>
				<path class="st2" d="M1093,107.8l-0.2,5l-24.2-0.8l0.2-5L1093,107.8z"/>
				<path class="st2" d="M1159.1,116.5l-1,4.9l-23.7-5l1-4.9L1159.1,116.5z"/>
				<path class="st2" d="M1222.2,141.8l-2.3,4.5l-21.6-10.9l2.3-4.5L1222.2,141.8z"/>
				<path class="st2" d="M1276.5,182.9l-3.3,3.7l-18.1-16.1l3.3-3.7L1276.5,182.9z"/>
				<path class="st2" d="M1319.9,234.6l-4,3l-14.5-19.5l4-3L1319.9,234.6z"/>
				<path class="st2" d="M1354.5,291.8l-4.4,2.4l-11.8-21.2l4.4-2.4L1354.5,291.8z"/>
				<path class="st2" d="M1383.4,351.3l-4.5,2.1l-10.2-22l4.6-2.1L1383.4,351.3z"/>
				<path class="st2" d="M1409.6,411.7l-4.6,2l-9.5-22.3l4.6-2L1409.6,411.7z"/>
				<path class="st2" d="M1435.5,471.3l-4.6,2l-9.8-22.2l4.6-2L1435.5,471.3z"/>
				<path class="st2" d="M1463.8,529.9l-4.5,2.3l-11-21.6l4.5-2.3L1463.8,529.9z"/>
				<path class="st2" d="M1497.8,587l-4.2,2.7l-13.2-20.3l4.2-2.7L1497.8,587z"/>
				<path class="st2" d="M1540.5,638.8l-3.7,3.4l-16.6-17.7l3.7-3.4L1540.5,638.8z"/>
				<path class="st2" d="M1594.2,680.1l-2.7,4.2l-20.4-13.1l2.7-4.2L1594.2,680.1z"/>
				<path class="st2" d="M1657.1,705.8l-1.5,4.8l-23.1-7.3l1.5-4.8L1657.1,705.8z"/>
				<path class="st2" d="M1723.9,716l-0.4,5l-24.2-2.1l0.4-5L1723.9,716z"/>
				<path class="st2" d="M1791,713.4l0.5,5l-24.1,2.5l-0.5-5L1791,713.4z"/>
				<path class="st2" d="M1856.3,694.2l1.9,4.7l-22.5,9l-1.9-4.7L1856.3,694.2z"/>
				<path class="st2" d="M1912.5,654.6l3.3,3.7l-18,16.2l-3.3-3.7L1912.5,654.6z"/>
				<path class="st2" d="M1951.7,598.3l4.4,2.4l-11.7,21.2l-4.4-2.4L1951.7,598.3z"/>
				<path class="st2" d="M1973,533.8l4.9,1.2l-5.8,23.5l-4.9-1.2L1973,533.8z"/>
				<path class="st2" d="M1979.5,466.7l5,0.2l-0.8,24.2l-5-0.2L1979.5,466.7z"/>
				<path class="st2" d="M1973.8,399.9l5-0.7l3.4,24l-5,0.7L1973.8,399.9z"/>
				<path class="st2" d="M1957.1,335l4.8-1.5l7.3,23.1l-4.8,1.5L1957.1,335z"/>
				<path class="st2" d="M1929.3,273.8l4.4-2.3l11.4,21.4l-4.4,2.3L1929.3,273.8z"/>
				<path class="st2" d="M1889.2,219.5l3.8-3.3l15.9,18.3l-3.8,3.3L1889.2,219.5z"/>
				<path class="st2" d="M1834.7,178.1l2.6-4.3l20.8,12.4l-2.6,4.3L1834.7,178.1z"/>
				<path class="st2" d="M1767.5,160.6l0.5-5l24.1,2.7l-0.5,5L1767.5,160.6z"/>
			</g>
		</g>
		<g id="Layer_2_1_" class="st1">
			<g>
				<path class="st2" d="M329.5,156.4l1.7-4.7l22.8,8.1l-1.7,4.7L329.5,156.4z"/>
				<path class="st2" d="M260.5,151.2l-0.3-5l24.2-1.5l0.3,5L260.5,151.2z"/>
				<path class="st2" d="M195.8,178.2l-2.7-4.2l20.6-12.9l2.7,4.2L195.8,178.2z"/>
				<path class="st2" d="M149.2,229l-4-3l14.4-19.5l4,3L149.2,229z"/>
				<path class="st2" d="M120.7,291.3l-4.8-1.5l7.1-23.2l4.8,1.5L120.7,291.3z"/>
				<path class="st2" d="M110.2,357.8l-5-0.5l2.6-24.1l5,0.5L110.2,357.8z"/>
				<path class="st2" d="M108.8,424.4l-5,0.1l-0.5-24.2l5-0.1L108.8,424.4z"/>
				<path class="st2" d="M116,490.7l-5,0.8l-3.7-24l5-0.8L116,490.7z"/>
				<path class="st2" d="M133.3,555.5l-4.8,1.6l-7.6-23l4.8-1.6L133.3,555.5z"/>
				<path class="st2" d="M163.6,615.9l-4.3,2.6l-12.5-20.8l4.3-2.6L163.6,615.9z"/>
				<path class="st2" d="M209.8,666.1l-3.3,3.8l-18.2-16l3.3-3.8L209.8,666.1z"/>
				<path class="st2" d="M270.3,698.6l-1.9,4.6l-22.5-9.1l1.9-4.6L270.3,698.6z"/>
				<path class="st2" d="M337.1,711.5l-0.5,5l-24.1-2.7l0.5-5L337.1,711.5z"/>
				<path class="st2" d="M404.1,710.6l0.3,5l-24.2,1.3l-0.3-5L404.1,710.6z"/>
				<path class="st2" d="M470.2,700.8l1,4.9l-23.8,4.8l-1-4.9L470.2,700.8z"/>
				<path class="st2" d="M533.9,678.7l2,4.6l-22.3,9.6l-2-4.6L533.9,678.7z"/>
				<path class="st2" d="M590.5,641.1l3.1,3.9l-18.9,15.2l-3.1-3.9L590.5,641.1z"/>
				<path class="st2" d="M634.7,589.5l4.1,2.9L624.5,612l-4.1-2.9L634.7,589.5z"/>
				<path class="st2" d="M666.6,530.3l4.5,2.1l-10.3,21.9l-4.5-2.1L666.6,530.3z"/>
				<path class="st2" d="M690.2,468.2l4.7,1.6l-8,22.9l-4.7-1.6L690.2,468.2z"/>
				<path class="st2" d="M709.4,406.3l4.8,1.5l-7,23.2l-4.8-1.5L709.4,406.3z"/>
				<path class="st2" d="M728.7,343.7l4.8,1.5l-7.3,23.1l-4.8-1.5L728.7,343.7z"/>
				<path class="st2" d="M751.7,281.5l4.6,1.9l-9.1,22.5l-4.6-1.9L751.7,281.5z"/>
				<path class="st2" d="M782.8,222.2l4.3,2.6l-12.5,20.8l-4.3-2.6L782.8,222.2z"/>
				<path class="st2" d="M826.6,170.3l3.5,3.6L812.9,191l-3.5-3.6L826.6,170.3z"/>
				<path class="st2" d="M883.8,132.7l2.3,4.4l-21.5,11.3l-2.3-4.4L883.8,132.7z"/>
				<path class="st2" d="M948.9,112.8l1.1,4.9l-23.7,5.2l-1.1-4.9L948.9,112.8z"/>
				<path class="st2" d="M1015.9,107.1l0.2,5l-24.2,1l-0.2-5L1015.9,107.1z"/>
				<path class="st2" d="M1083.4,115.9l-1.1,4.9l-23.7-5.2l1.1-4.9L1083.4,115.9z"/>
				<path class="st2" d="M1145.5,145.5l-2.7,4.2l-20.5-12.9l2.7-4.2L1145.5,145.5z"/>
				<path class="st2" d="M1193.9,194.2l-3.9,3.2l-15.3-18.8l3.9-3.2L1193.9,194.2z"/>
				<path class="st2" d="M1227.9,252.7l-4.5,2.3l-10.9-21.6l4.5-2.3L1227.9,252.7z"/>
				<path class="st2" d="M1252.9,314.5l-4.7,1.7l-8.4-22.7l4.7-1.7L1252.9,314.5z"/>
				<path class="st2" d="M1273.7,377l-4.8,1.5l-7.5-23.1l4.8-1.5L1273.7,377z"/>
				<path class="st2" d="M1294,438.8l-4.8,1.6l-7.7-23l4.8-1.6L1294,438.8z"/>
				<path class="st2" d="M1317.1,499.8l-4.6,1.9l-9.1-22.5l4.6-1.9L1317.1,499.8z"/>
				<path class="st2" d="M1346.5,559.5l-4.4,2.4l-11.6-21.3l4.4-2.4L1346.5,559.5z"/>
				<path class="st2" d="M1385.4,614.2l-3.9,3.2l-15.3-18.8l3.9-3.2L1385.4,614.2z"/>
				<path class="st2" d="M1436,659.2l-3,4l-19.4-14.6l3-4L1436,659.2z"/>
				<path class="st2" d="M1496.2,690.3l-1.9,4.6l-22.3-9.4l1.9-4.6L1496.2,690.3z"/>
				<path class="st2" d="M1561.3,707.5l-1,4.9l-23.8-4.8l1-4.9L1561.3,707.5z"/>
				<path class="st2" d="M1627.8,714l-0.3,5l-24.2-1.4l0.3-5L1627.8,714z"/>
				<path class="st2" d="M1694.3,712.6l0.3,5l-24.2,1.5l-0.3-5L1694.3,712.6z"/>
				<path class="st2" d="M1760.3,701.8l1.1,4.9l-23.7,5.2l-1.1-4.9L1760.3,701.8z"/>
				<path class="st2" d="M1823.6,678.8l2,4.6l-22.2,9.8l-2-4.6L1823.6,678.8z"/>
				<path class="st2" d="M1880.3,641.6l3.1,3.9l-19,15l-3.1-3.9L1880.3,641.6z"/>
				<path class="st2" d="M1924.5,589.6l4.1,2.9l-13.8,19.9l-4.1-2.9L1924.5,589.6z"/>
				<path class="st2" d="M1951.1,526.7l4.8,1.5l-7.2,23.1l-4.8-1.5L1951.1,526.7z"/>
				<path class="st2" d="M1958.4,458.9l5,0.1l-0.4,24.2l-5-0.1L1958.4,458.9z"/>
				<path class="st2" d="M1947.5,391.9l4.9-1.2l5.8,23.5l-4.9,1.2L1947.5,391.9z"/>
				<path class="st2" d="M1920.9,329.7l4.4-2.3l11.2,21.5l-4.4,2.3L1920.9,329.7z"/>
				<path class="st2" d="M1881.1,275.1l3.8-3.2l15.6,18.5l-3.8,3.2L1881.1,275.1z"/>
				<path class="st2" d="M1830.9,230.2l3.1-3.9l19.1,14.9l-3.1,3.9L1830.9,230.2z"/>
				<path class="st2" d="M1773,196l2.3-4.5l21.6,11.1l-2.3,4.5L1773,196z"/>
				<path class="st2" d="M1710.2,172.5l1.5-4.8l23.1,7.3l-1.5,4.8L1710.2,172.5z"/>
			</g>
		</g>
		<g id="Layer_3" class="st1">
			<path id="SVGID_x5F_1_x5F_" class="st2" d="M1720.5,899.7c369.7-1.1,369,346.5,369,346.5s35.3,393-344.8,392.2
				c-368.2-0.8-397.3-369-397.3-369S1332.7,899,977.7,899.7C606.4,900.4,608,1269.4,608,1269.4s13.6,370.4-376.4,369.7
				c-392.1-0.6-369.7-369.7-369.7-369.7s-30.3-321.6,315.4-365.8"/>
			<text transform="matrix(-0.9902 0.1395 -0.1395 -0.9902 911.2772 904.1107)" class="st2 st3 st4"> </text>
			<text transform="matrix(-0.9891 0.147 -0.147 -0.9891 907.9751 904.5748)" class="st2 st3" style="font-size:11.9996px;"> </text>
			<text class="st2 st3 st4"> </text>
			<g>
				<g>
					<path class="st2" d="M1637.3,26.4l-33.3-2.1l0.3-4.1l33.3,2.1L1637.3,26.4z"/>
					<path class="st2" d="M1698.6,39l-32.3-8.1l1-3.9l32.3,8.1L1698.6,39z"/>
					<path class="st2" d="M1756.7,62.5l-30.4-13.8l1.7-3.7l30.4,13.8L1756.7,62.5z"/>
					<path class="st2" d="M1809.6,96l-27.4-19l2.3-3.3l27.4,19L1809.6,96z"/>
					<path class="st2" d="M1855.6,138.5l-23.5-23.6l2.9-2.9l23.5,23.6L1855.6,138.5z"/>
					<path class="st2" d="M1893.2,188.6l-18.9-27.5l3.4-2.3l18.9,27.5L1893.2,188.6z"/>
					<path class="st2" d="M1921.3,244.5l-13.7-30.4l3.7-1.7l13.7,30.4L1921.3,244.5z"/>
					<path class="st2" d="M1938.8,304.7l-7.9-32.4l4-1l7.9,32.4L1938.8,304.7z"/>
					<path class="st2" d="M1945.1,367l-2-33.3l4.1-0.2l2,33.3L1945.1,367z"/>
					<path class="st2" d="M1940.3,429.4l4-33.1l4,0.5l-4,33.1L1940.3,429.4z"/>
					<path class="st2" d="M1924.3,490l9.9-31.8l3.9,1.2l-9.9,31.8L1924.3,490z"/>
					<path class="st2" d="M1897.6,546.7l15.5-29.5l3.6,1.9l-15.5,29.5L1897.6,546.7z"/>
					<path class="st2" d="M1861.2,597.6l20.5-26.3l3.2,2.5l-20.5,26.3L1861.2,597.6z"/>
					<path class="st2" d="M1816.3,641.2l24.9-22.2l2.7,3l-24.9,22.2L1816.3,641.2z"/>
					<path class="st2" d="M1764.2,676.1l28.5-17.4l2.1,3.5l-28.5,17.4L1764.2,676.1z"/>
					<path class="st2" d="M1706.8,701l31.1-12l1.5,3.8l-31.1,12L1706.8,701z"/>
					<path class="st2" d="M1645.7,715.1l32.8-6.1l0.7,4l-32.8,6.1L1645.7,715.1z"/>
					<path class="st2" d="M1583.7,718.2l33.3-0.5l0.1,4.1l-33.3,0.5L1583.7,718.2z"/>
					<path class="st2" d="M1521.1,709.8l32.8,5.8l-0.7,4l-32.8-5.8L1521.1,709.8z"/>
					<path class="st2" d="M1461.5,690.5l31.3,11.6l-1.4,3.8l-31.3-11.6L1461.5,690.5z"/>
					<path class="st2" d="M1406.4,660.7l28.6,17.1l-2.1,3.5l-28.6-17.1L1406.4,660.7z"/>
					<path class="st2" d="M1357.5,621.5l25.1,21.9l-2.7,3.1l-25.1-21.9L1357.5,621.5z"/>
					<path class="st2" d="M1316.5,574.3l20.8,26.1l-3.2,2.5l-20.8-26.1L1316.5,574.3z"/>
					<path class="st2" d="M1284.5,520.4l15.8,29.4l-3.6,1.9l-15.8-29.4L1284.5,520.4z"/>
					<path class="st2" d="M1262.8,461.6l10.2,31.7l-3.9,1.2l-10.2-31.7L1262.8,461.6z"/>
					<path class="st2" d="M1252.1,399.9l4.3,33.1l-4,0.5l-4.3-33.1L1252.1,399.9z"/>
					<path class="st2" d="M1249.8,337.3l2.1,33.3l-4.1,0.3l-2.1-33.3L1249.8,337.3z"/>
					<path class="st2" d="M1234.2,274.1l9.8,31.9l-3.9,1.2l-9.8-31.9L1234.2,274.1z"/>
					<path class="st2" d="M1204.1,216.4l17.1,28.6l-3.5,2.1l-17.1-28.6L1204.1,216.4z"/>
					<path class="st2" d="M1161.3,167.3l23.3,23.8l-2.9,2.8l-23.3-23.8L1161.3,167.3z"/>
					<path class="st2" d="M1108.3,129.6l28.2,17.7l-2.2,3.4l-28.2-17.7L1108.3,129.6z"/>
					<path class="st2" d="M1047.8,105.4l31.6,10.5l-1.3,3.9l-31.6-10.5L1047.8,105.4z"/>
					<path class="st2" d="M983.3,96.2l33.2,2.8l-0.3,4.1l-33.2-2.8L983.3,96.2z"/>
					<path class="st2" d="M918.5,102.3l33-5l0.6,4l-33,5L918.5,102.3z"/>
					<path class="st2" d="M856.9,123.5l30.8-12.7l1.5,3.8l-30.8,12.7L856.9,123.5z"/>
					<path class="st2" d="M802.1,158.7l27-19.6l2.4,3.3l-27,19.6L802.1,158.7z"/>
					<path class="st2" d="M757,205.6l21.7-25.3l3.1,2.6l-21.7,25.3L757,205.6z"/>
					<path class="st2" d="M724.2,261.8l15.1-29.7l3.6,1.8l-15.1,29.7L724.2,261.8z"/>
					<path class="st2" d="M705.6,324.3l7.6-32.5l4,0.9l-7.6,32.5L705.6,324.3z"/>
					<path class="st2" d="M701.8,388.7l0.5-33.3l4.1,0.1l-0.5,33.3L701.8,388.7z"/>
					<path class="st2" d="M693.4,450.5l6-32.8l4,0.7l-6,32.8L693.4,450.5z"/>
					<path class="st2" d="M673.6,510l11.8-31.2l3.8,1.4l-11.8,31.2L673.6,510z"/>
					<path class="st2" d="M643.5,564.9l17.3-28.5l3.5,2.1L647,567L643.5,564.9z"/>
					<path class="st2" d="M604,613.5l22.1-25l3,2.7l-22.1,25L604,613.5z"/>
					<path class="st2" d="M556.4,654.2l26.2-20.6l2.5,3.2L559,657.4L556.4,654.2z"/>
					<path class="st2" d="M502.3,685.8l29.5-15.6l1.9,3.6l-29.5,15.6L502.3,685.8z"/>
					<path class="st2" d="M443.4,707.1l31.8-10l1.2,3.9l-31.8,10L443.4,707.1z"/>
					<path class="st2" d="M381.7,717.4l33.1-4.1l0.5,4l-33.1,4.1L381.7,717.4z"/>
					<path class="st2" d="M319.1,716.5l33.3,1.9l-0.2,4.1l-33.3-1.9L319.1,716.5z"/>
					<path class="st2" d="M257.6,704.4l32.4,7.8l-1,4l-32.4-7.8L257.6,704.4z"/>
					<path class="st2" d="M199.3,681.4l30.5,13.6l-1.7,3.7l-30.5-13.6L199.3,681.4z"/>
					<path class="st2" d="M146.2,648.3l27.5,18.8l-2.3,3.4l-27.5-18.8L146.2,648.3z"/>
					<path class="st2" d="M99.8,606.2l23.7,23.4l-2.9,2.9L97,609.1L99.8,606.2z"/>
					<path class="st2" d="M61.7,556.4l19.1,27.3l-3.3,2.3l-19.1-27.3L61.7,556.4z"/>
					<path class="st2" d="M33.2,500.7L47.1,531l-3.7,1.7l-13.9-30.3L33.2,500.7z"/>
					<path class="st2" d="M15.2,440.7l8.2,32.3l-3.9,1l-8.2-32.3L15.2,440.7z"/>
					<path class="st2" d="M8.4,378.4l2.3,33.3L6.5,412l-2.3-33.3L8.4,378.4z"/>
					<path class="st2" d="M12.7,316L9,349.1l-4-0.5l3.7-33.1L12.7,316z"/>
					<path class="st2" d="M28.1,255.3l-9.6,31.9l-3.9-1.2l9.6-31.9L28.1,255.3z"/>
					<path class="st2" d="M54.3,198.4L39.1,228l-3.6-1.9l15.2-29.7L54.3,198.4z"/>
					<path class="st2" d="M90.4,147.1l-20.3,26.5l-3.2-2.5l20.3-26.5L90.4,147.1z"/>
					<path class="st2" d="M134.9,103.1l-24.7,22.4l-2.7-3l24.7-22.4L134.9,103.1z"/>
					<path class="st2" d="M186.7,67.9l-28.3,17.6l-2.1-3.5l28.3-17.6L186.7,67.9z"/>
					<path class="st2" d="M243.9,42.5l-31,12.2l-1.5-3.8l31-12.2L243.9,42.5z"/>
					<path class="st2" d="M304.9,27.8l-32.7,6.4l-0.8-4l32.7-6.4L304.9,27.8z"/>
				</g>
			</g>
		</g>
		<g id="Layer_5" class="st1">
			<g>
				<g>
					<path class="st2" d="M1601.5,101.9l-32.1,4.2l-0.5-3.8l32.1-4.2L1601.5,101.9z"/>
					<path class="st2" d="M1662,101l-32.4-0.7l0.1-3.8l32.4,0.7L1662,101z"/>
					<path class="st2" d="M1722.1,110l-31.8-6.1l0.8-3.8l31.8,6.1L1722.1,110z"/>
					<path class="st2" d="M1779.6,131l-29.7-12.7l1.6-3.5l29.7,12.7L1779.6,131z"/>
					<path class="st2" d="M1830.2,165.7l-25.2-19.8l2.5-3l25.2,19.8L1830.2,165.7z"/>
					<path class="st2" d="M1869.4,212.6l-18.7-25.7l3.2-2.2l18.7,25.7L1869.4,212.6z"/>
					<path class="st2" d="M1894.9,267.2l-11.8-29.4l3.7-1.4l11.8,29.4L1894.9,267.2z"/>
					<path class="st2" d="M1908.4,325.1l-5.9-31l3.9-0.7l5.9,31L1908.4,325.1z"/>
					<path class="st2" d="M1910.3,384.6l0.9-31.5l4,0.1l-0.9,31.5L1910.3,384.6z"/>
					<path class="st2" d="M1897.7,443.2l8.4-30.5l3.8,1l-8.4,30.5L1897.7,443.2z"/>
					<path class="st2" d="M1872,497.5l15-27.9l3.5,1.8l-15,27.9L1872,497.5z"/>
					<path class="st2" d="M1835.5,545.3l20.5-24.4l3.1,2.4l-20.5,24.4L1835.5,545.3z"/>
					<path class="st2" d="M1790.7,585.4l24.7-20.4l2.6,2.9l-24.7,20.4L1790.7,585.4z"/>
					<path class="st2" d="M1739.6,617.3l27.9-16l2,3.3l-27.9,16L1739.6,617.3z"/>
					<path class="st2" d="M1683.8,640.6l30.3-11.3l1.4,3.6l-30.3,11.3L1683.8,640.6z"/>
					<path class="st2" d="M1624.9,654.5l31.8-6.2l0.8,3.8l-31.8,6.2L1624.9,654.5z"/>
					<path class="st2" d="M1564.2,658.5l32.4-0.8l0.1,3.8l-32.4,0.8L1564.2,658.5z"/>
					<path class="st2" d="M1503.6,651.5l32,5.2l-0.7,3.8l-32-5.2L1503.6,651.5z"/>
					<path class="st2" d="M1445.6,632l30,11.9l-1.5,3.6l-30-11.9L1445.6,632z"/>
					<path class="st2" d="M1393.4,600.5l26.6,18l-2.3,3.2l-26.6-18L1393.4,600.5z"/>
					<path class="st2" d="M1349.1,559.5l22.5,22.7l-2.8,2.7l-22.5-22.7L1349.1,559.5z"/>
					<path class="st2" d="M1312.8,512.3l18.5,25.9l-3.2,2.2l-18.5-25.9L1312.8,512.3z"/>
					<path class="st2" d="M1283.4,461.4l15.1,27.9l-3.5,1.8l-15.1-27.9L1283.4,461.4z"/>
					<path class="st2" d="M1259.5,408.2l12.4,29.1l-3.7,1.5l-12.4-29.1L1259.5,408.2z"/>
					<path class="st2" d="M1240,353.6l10.2,29.9l-3.8,1.2l-10.2-29.9L1240,353.6z"/>
					<path class="st2" d="M1224.8,298l8.1,30.5l-3.8,1L1221,299L1224.8,298z"/>
					<path class="st2" d="M1208.8,243.1l9.1,30.2l-3.8,1.1l-9.1-30.2L1208.8,243.1z"/>
					<path class="st2" d="M1189.3,188.2l11.1,29.6l-3.7,1.3l-11.1-29.6L1189.3,188.2z"/>
					<path class="st2" d="M1164.2,134.6l14.3,28.3l-3.6,1.7l-14.3-28.3L1164.2,134.6z"/>
					<path class="st2" d="M1130,84.3l19.2,25.4l-3.2,2.3l-19.2-25.4L1130,84.3z"/>
					<path class="st2" d="M1082.1,42.6l25.8,19.1l-2.4,3.1l-25.8-19.1L1082.1,42.6z"/>
					<path class="st2" d="M1021.3,18.4l31,9.3l-1.2,3.7l-31-9.3L1021.3,18.4z"/>
					<polygon class="st2" points="989.6,14 989.5,17.8 957.1,17.2 957.2,13.4 					"/>
					<path class="st2" d="M894.2,24.4l31.4-8l1,3.7l-31.4,8L894.2,24.4z"/>
					<path class="st2" d="M837.1,56.5l26.4-18.3l2.3,3.1l-26.4,18.3L837.1,56.5z"/>
					<path class="st2" d="M794.5,103.5l19.8-24.9l3.1,2.4l-19.8,24.9L794.5,103.5z"/>
					<path class="st2" d="M763.8,156l15-27.9l3.5,1.8l-15,27.9L763.8,156z"/>
					<path class="st2" d="M740.4,210.3l11.9-29.3l3.7,1.4l-11.9,29.3L740.4,210.3z"/>
					<path class="st2" d="M721.3,265.3l10-30l3.8,1.2l-10,30L721.3,265.3z"/>
					<path class="st2" d="M704.7,320.3l8.9-30.3l3.8,1.1l-8.9,30.3L704.7,320.3z"/>
					<path class="st2" d="M689.9,375.7l8.4-30.5l3.8,1l-8.4,30.5L689.9,375.7z"/>
					<path class="st2" d="M669.2,430.5l12.1-29.3l3.7,1.4l-12.1,29.3L669.2,430.5z"/>
					<path class="st2" d="M641.2,482.4l16-27.4l3.4,1.9l-16,27.4L641.2,482.4z"/>
					<path class="st2" d="M605.7,530l19.9-24.9l3.1,2.4l-19.9,24.9L605.7,530z"/>
					<path class="st2" d="M563,571.7l23.7-21.5l2.7,2.8l-23.7,21.5L563,571.7z"/>
					<path class="st2" d="M513.6,606.1l27.1-17.3l2.2,3.2l-27.1,17.3L513.6,606.1z"/>
					<path class="st2" d="M458.9,631.8l29.7-12.6l1.6,3.5l-29.7,12.6L458.9,631.8z"/>
					<path class="st2" d="M400.6,648.3l31.5-7.6l1,3.7l-31.5,7.6L400.6,648.3z"/>
					<path class="st2" d="M340.5,655.5l32.3-2.7l0.3,3.8l-32.3,2.7L340.5,655.5z"/>
					<path class="st2" d="M279.9,653.4l32.3,2.5l-0.3,3.8l-32.3-2.5L279.9,653.4z"/>
					<path class="st2" d="M220.3,639.2l31,9.2l-1.2,3.7l-31-9.2L220.3,639.2z"/>
					<path class="st2" d="M165.6,611l27.6,16.5l-2.1,3.3l-27.6-16.5L165.6,611z"/>
					<path class="st2" d="M120.2,570.1l22.4,22.8l-2.9,2.7l-22.4-22.8L120.2,570.1z"/>
					<path class="st2" d="M86.5,520l16.3,27.2l-3.4,1.9l-16.3-27.2L86.5,520z"/>
					<path class="st2" d="M64.1,464.7l10.6,29.8l-3.7,1.3L60.4,466L64.1,464.7z"/>
					<path class="st2" d="M52,406.8l5.3,31.1l-3.9,0.6l-5.3-31.1L52,406.8z"/>
					<path class="st2" d="M49.9,347.8l-0.3,31.5h-4l0.3-31.5H49.9z"/>
					<path class="st2" d="M62,288.8l-8.4,30.4l-3.8-1l8.4-30.4L62,288.8z"/>
					<path class="st2" d="M90.2,235l-16.7,27l-3.4-2l16.7-27L90.2,235z"/>
					<path class="st2" d="M133,191l-23.8,21.4l-2.7-2.8l23.8-21.4L133,191z"/>
					<path class="st2" d="M185.6,159.4l-28.5,15.1l-1.9-3.4l28.5-15.1L185.6,159.4z"/>
					<path class="st2" d="M243.3,139.6l-31,9.2l-1.1-3.7l31-9.2L243.3,139.6z"/>
				</g>
			</g>
		</g>
	</g>
	<g>
		<path class="st2" d="M1614.5,61.7l0.1,2l-20.2,0.5l-0.1-2L1614.5,61.7z"/>
		<path class="st2" d="M1659.9,63.7l-0.1,2l-20.1-1.4l0.1-2L1659.9,63.7z"/>
		<path class="st2" d="M1704.7,70.5l-0.4,2l-19.8-3.6l0.4-2L1704.7,70.5z"/>
		<path class="st2" d="M1748.3,82.6l-0.6,1.9l-19.2-6.1l0.6-1.9L1748.3,82.6z"/>
		<path class="st2" d="M1789.6,100.3l-0.9,1.8l-18.2-8.7l0.9-1.8L1789.6,100.3z"/>
		<path class="st2" d="M1827.7,124l-1.1,1.6l-16.6-11.3l1.1-1.6L1827.7,124z"/>
		<path class="st2" d="M1861.4,153.2l-1.4,1.4l-14.6-13.8l1.4-1.4L1861.4,153.2z"/>
		<path class="st2" d="M1889.9,187.6l-1.6,1.2l-12.1-16l1.6-1.2L1889.9,187.6z"/>
		<path class="st2" d="M1912.6,225.9l-1.8,0.9l-9.5-17.7l1.8-0.9L1912.6,225.9z"/>
		<path class="st2" d="M1929.6,267.3l-1.9,0.7l-6.9-18.8l1.9-0.7L1929.6,267.3z"/>
		<path class="st2" d="M1941.1,310.6l-2,0.4l-4.5-19.5l2-0.4L1941.1,310.6z"/>
		<path class="st2" d="M1947.6,355.1l-2,0.2l-2.3-19.9l2-0.2L1947.6,355.1z"/>
		<path class="st2" d="M1949.9,400.2l-2,0l-0.5-20l2-0.1L1949.9,400.2z"/>
		<path class="st2" d="M1948.2,445.3l-2-0.1l1.3-20l2,0.1L1948.2,445.3z"/>
		<path class="st2" d="M1940.5,489.2l-2-0.4l4.2-19.6l2,0.4L1940.5,489.2z"/>
		<path class="st2" d="M1926.4,531.5l-1.9-0.7l7.1-18.7l1.9,0.7L1926.4,531.5z"/>
		<path class="st2" d="M1905.9,571.1l-1.8-1l10-17.4l1.8,1L1905.9,571.1z"/>
		<path class="st2" d="M1879.5,607l-1.6-1.2l12.6-15.6l1.6,1.2L1879.5,607z"/>
		<path class="st2" d="M1847.7,638.5l-1.4-1.5l14.9-13.5l1.4,1.5L1847.7,638.5z"/>
		<path class="st2" d="M1811.5,664.9l-1.1-1.7l16.7-11.2l1.1,1.7L1811.5,664.9z"/>
		<path class="st2" d="M1771.7,685.8l-0.9-1.8l18.2-8.7l0.9,1.8L1771.7,685.8z"/>
		<path class="st2" d="M1729.4,701.1l-0.6-1.9l19.2-6.2l0.6,1.9L1729.4,701.1z"/>
		<path class="st2" d="M1685.3,710.9l-0.4-2l19.8-3.7l0.4,2L1685.3,710.9z"/>
		<path class="st2" d="M1640.2,715.4l-0.1-2l20.1-1.4l0.1,2L1640.2,715.4z"/>
		<path class="st2" d="M1594.8,715l0.1-2l20.2,0.8l-0.1,2L1594.8,715z"/>
		<path class="st2" d="M1549.9,709.4l0.3-2l19.9,3.2l-0.3,2L1549.9,709.4z"/>
		<path class="st2" d="M1506.4,697.9l0.6-1.9l19.3,5.9l-0.6,1.9L1506.4,697.9z"/>
		<path class="st2" d="M1465.2,680.2l0.9-1.8l18.1,8.8l-0.9,1.8L1465.2,680.2z"/>
		<path class="st2" d="M1427.4,656.2l1.2-1.6l16.5,11.5l-1.2,1.6L1427.4,656.2z"/>
		<path class="st2" d="M1394,626.5l1.4-1.4l14.4,14l-1.4,1.4L1394,626.5z"/>
		<path class="st2" d="M1365.5,592l1.6-1.2l12.2,15.9l-1.6,1.2L1365.5,592z"/>
		<path class="st2" d="M1341.8,554l1.8-1l10,17.4l-1.8,1L1341.8,554z"/>
		<path class="st2" d="M1322.9,513.2l1.9-0.8l7.9,18.4l-1.9,0.8L1322.9,513.2z"/>
		<path class="st2" d="M1308.4,470.5l1.9-0.6l5.9,19.1l-1.9,0.6L1308.4,470.5z"/>
		<path class="st2" d="M1298.2,426.6l2-0.4l4,19.6l-2,0.4L1298.2,426.6z"/>
		<path class="st2" d="M1293.3,382.2l2-0.1l1.3,20l-2,0.1L1293.3,382.2z"/>
		<path class="st2" d="M1286,334.5l2-0.4l3.6,19.7l-2,0.4L1286,334.5z"/>
		<path class="st2" d="M1274.4,288l1.9-0.5l5.4,19.3l-1.9,0.5L1274.4,288z"/>
		<path class="st2" d="M1258.1,242.8l1.9-0.7l7.4,18.6l-1.9,0.7L1258.1,242.8z"/>
		<path class="st2" d="M1236.5,199.4l1.8-1l9.6,17.6l-1.8,1L1236.5,199.4z"/>
		<path class="st2" d="M1208.8,159l1.6-1.2l12.1,16l-1.6,1.2L1208.8,159z"/>
		<path class="st2" d="M1174.5,123.2l1.4-1.5l14.6,13.8l-1.4,1.5L1174.5,123.2z"/>
		<path class="st2" d="M1133.9,94.1l1.1-1.7l17,10.8l-1.1,1.7L1133.9,94.1z"/>
		<path class="st2" d="M1088.3,73.2l0.7-1.9l18.8,7.4l-0.7,1.9L1088.3,73.2z"/>
		<path class="st2" d="M1040,60.9l0.4-2l19.8,4l-0.4,2L1040,60.9z"/>
		<path class="st2" d="M990.8,56.4l0.1-2l20.2,1l-0.1,2L990.8,56.4z"/>
		<path class="st2" d="M942,58.1l-0.1-2l20.1-1.4l0.1,2L942,58.1z"/>
		<path class="st2" d="M893.5,66.4l-0.4-2l19.7-4.2l0.4,2L893.5,66.4z"/>
		<path class="st2" d="M846.4,82.4l-0.8-1.9l18.7-7.5l0.8,1.9L846.4,82.4z"/>
		<path class="st2" d="M802.7,106.8l-1.1-1.7l17-10.8l1.1,1.7L802.7,106.8z"/>
		<path class="st2" d="M764.6,139.2l-1.4-1.4l14.6-13.8l1.4,1.4L764.6,139.2z"/>
		<path class="st2" d="M733.2,177.7l-1.6-1.2l11.9-16.2l1.6,1.2L733.2,177.7z"/>
		<path class="st2" d="M708.7,220.2l-1.8-0.9l9.2-17.8l1.8,0.9L708.7,220.2z"/>
		<path class="st2" d="M690.4,265.3l-1.9-0.7l6.8-18.8l1.9,0.7L690.4,265.3z"/>
		<path class="st2" d="M677.7,311.7l-2-0.5l4.7-19.4l2,0.5L677.7,311.7z"/>
		<path class="st2" d="M669.8,359.1l-2-0.3l2.7-19.8l2,0.3L669.8,359.1z"/>
		<path class="st2" d="M667.2,407.4l-2,0l0.2-20l2,0L667.2,407.4z"/>
		<path class="st2" d="M662.1,451.9l-2-0.3l2.9-19.8l2,0.3L662.1,451.9z"/>
		<path class="st2" d="M652.2,495.8l-2-0.5l5-19.4l2,0.5L652.2,495.8z"/>
		<path class="st2" d="M637.5,538.2l-1.9-0.7l7.2-18.7l1.9,0.7L637.5,538.2z"/>
		<path class="st2" d="M617.5,578.3l-1.8-1l9.6-17.6l1.8,1L617.5,578.3z"/>
		<path class="st2" d="M592.1,615.1l-1.6-1.2l12.1-16l1.6,1.2L592.1,615.1z"/>
		<path class="st2" d="M561.1,647.2l-1.4-1.4l14.6-13.8l1.4,1.4L561.1,647.2z"/>
		<path class="st2" d="M525.2,673.6l-1.1-1.7l16.8-11.1l1.1,1.7L525.2,673.6z"/>
		<path class="st2" d="M485.2,693.6l-0.8-1.8l18.4-8.2l0.8,1.8L485.2,693.6z"/>
		<path class="st2" d="M442.4,707.3l-0.5-1.9l19.4-5.4l0.5,1.9L442.4,707.3z"/>
		<path class="st2" d="M397.9,715.1l-0.3-2l20-2.8l0.3,2L397.9,715.1z"/>
		<path class="st2" d="M352.7,717.8l-0.1-2l20.2-0.6l0.1,2L352.7,717.8z"/>
		<path class="st2" d="M307.2,716.1l0.1-2l20.1,1.3l-0.1,2L307.2,716.1z"/>
		<path class="st2" d="M262.4,709.4l0.4-2l19.9,3.6l-0.4,2L262.4,709.4z"/>
		<path class="st2" d="M219.1,697.1l0.6-1.9l19.2,6.3l-0.6,1.9L219.1,697.1z"/>
		<path class="st2" d="M178.4,678.3l0.9-1.8l17.9,9.3l-0.9,1.8L178.4,678.3z"/>
		<path class="st2" d="M141.8,652.9l1.2-1.6l16,12.2l-1.2,1.6L141.8,652.9z"/>
		<path class="st2" d="M110.3,621.5l1.5-1.3l13.5,14.9l-1.5,1.3L110.3,621.5z"/>
		<path class="st2" d="M84.6,585.2l1.7-1.1L97.1,601l-1.7,1.1L84.6,585.2z"/>
		<path class="st2" d="M64.8,545.2l1.8-0.8l8.2,18.3l-1.8,0.8L64.8,545.2z"/>
		<path class="st2" d="M50.5,502.7l1.9-0.6l5.7,19.2l-1.9,0.6L50.5,502.7z"/>
		<path class="st2" d="M41.3,458.8l2-0.3l3.5,19.7l-2,0.3L41.3,458.8z"/>
		<path class="st2" d="M37.1,414.1l2-0.1l1.3,20l-2,0.1L37.1,414.1z"/>
		<path class="st2" d="M37.3,368.2l2,0.1l-0.5,20l-2-0.1L37.3,368.2z"/>
		<path class="st2" d="M42.7,323.7l2,0.3l-3.1,19.8l-2-0.3L42.7,323.7z"/>
		<path class="st2" d="M53.5,280.2l1.9,0.5L49.9,300l-1.9-0.5L53.5,280.2z"/>
		<path class="st2" d="M69.7,238.5l1.9,0.8l-8,18.4l-1.9-0.8L69.7,238.5z"/>
		<path class="st2" d="M91.6,199.4l1.7,1l-10.5,17.1l-1.7-1L91.6,199.4z"/>
		<path class="st2" d="M119,164.2l1.5,1.3l-13,15.3l-1.5-1.3L119,164.2z"/>
		<path class="st2" d="M151.6,133.5l1.3,1.5l-15.2,13.1l-1.3-1.5L151.6,133.5z"/>
		<path class="st2" d="M188.5,108.1l1.1,1.7l-17,10.8l-1.1-1.7L188.5,108.1z"/>
		<path class="st2" d="M228.7,87.9l0.8,1.8l-18.3,8.4l-0.8-1.8L228.7,87.9z"/>
		<path class="st2" d="M271.4,72.9l0.6,1.9l-19.2,6.1l-0.6-1.9L271.4,72.9z"/>
	</g>
</g>
<g id="Layer_2">
</g>
</svg>
