<?xml version="1.0" encoding="utf-8"?>
<!-- Generator: Adobe Illustrator 25.0.0, SVG Export Plug-In . SVG Version: 6.00 Build 0)  -->
<svg version="1.1" xmlns="http://www.w3.org/2000/svg" xmlns:xlink="http://www.w3.org/1999/xlink" x="0px" y="0px"
	 viewBox="0 0 2091.5 737.7" style="enable-background:new 0 0 2091.5 737.7;" xml:space="preserve">
<style type="text/css">
	.st0{display:none;}
	.st1{display:inline;}
	.st2{fill:#30BAD2;}
</style>
<g id="Layer_1" class="st0">
	<g class="st1">
		<path class="st2" d="M329.5,160.4l1.7-4.7l22.8,8.1l-1.7,4.7L329.5,160.4z"/>
		<path class="st2" d="M260.5,155.2l-0.3-5l24.2-1.5l0.3,5L260.5,155.2z"/>
		<path class="st2" d="M195.8,182.2l-2.7-4.2l20.6-12.9l2.7,4.2L195.8,182.2z"/>
		<path class="st2" d="M149.2,233l-4-3l14.4-19.5l4,3L149.2,233z"/>
		<path class="st2" d="M120.7,295.3l-4.8-1.5l7.1-23.2l4.8,1.5L120.7,295.3z"/>
		<path class="st2" d="M110.2,361.8l-5-0.5l2.6-24.1l5,0.5L110.2,361.8z"/>
		<path class="st2" d="M108.8,428.4l-5,0.1l-0.5-24.2l5-0.1L108.8,428.4z"/>
		<path class="st2" d="M116,494.7l-5,0.8l-3.7-24l5-0.8L116,494.7z"/>
		<path class="st2" d="M133.3,559.5l-4.8,1.6l-7.6-23l4.8-1.6L133.3,559.5z"/>
		<path class="st2" d="M163.6,619.9l-4.3,2.6l-12.5-20.8l4.3-2.6L163.6,619.9z"/>
		<path class="st2" d="M209.8,670.1l-3.3,3.8l-18.2-16l3.3-3.8L209.8,670.1z"/>
		<path class="st2" d="M270.3,702.6l-1.9,4.6l-22.5-9.1l1.9-4.6L270.3,702.6z"/>
		<path class="st2" d="M337.1,715.5l-0.5,5l-24.1-2.7l0.5-5L337.1,715.5z"/>
		<path class="st2" d="M404.1,714.6l0.3,5l-24.2,1.3l-0.3-5L404.1,714.6z"/>
		<path class="st2" d="M470.2,704.5l1,4.9l-23.7,4.9l-1-4.9L470.2,704.5z"/>
		<path class="st2" d="M533.7,681.3l2.1,4.6l-22,10.1l-2.1-4.6L533.7,681.3z"/>
		<path class="st2" d="M589,641.5l3.3,3.8l-18.2,16l-3.3-3.8L589,641.5z"/>
		<path class="st2" d="M631,588l4.2,2.8L621.7,611l-4.2-2.8L631,588z"/>
		<path class="st2" d="M660.9,528l4.6,2l-9.8,22.2l-4.6-2L660.9,528z"/>
		<path class="st2" d="M683.7,465.9l4.7,1.6l-7.9,22.9l-4.7-1.6L683.7,465.9z"/>
		<path class="st2" d="M703.9,404.3l4.8,1.6l-7.5,23l-4.8-1.6L703.9,404.3z"/>
		<path class="st2" d="M725.9,342.1l4.7,1.8l-8.5,22.7l-4.7-1.8L725.9,342.1z"/>
		<path class="st2" d="M753.2,281.5l4.5,2.2l-10.8,21.7l-4.5-2.2L753.2,281.5z"/>
		<path class="st2" d="M789.6,225l4,3l-14.3,19.5l-4-3L789.6,225z"/>
		<path class="st2" d="M837.4,177.1l3.3,3.8l-18.4,15.8l-3.3-3.8L837.4,177.1z"/>
		<path class="st2" d="M895.4,141.9l2.3,4.5l-21.6,11l-2.3-4.5L895.4,141.9z"/>
		<path class="st2" d="M959.4,120.1l1.3,4.8l-23.4,6.4l-1.3-4.8L959.4,120.1z"/>
		<path class="st2" d="M1025.5,109.6l0.6,5l-24.1,2.7l-0.6-5L1025.5,109.6z"/>
		<path class="st2" d="M1093,107.8l-0.2,5l-24.2-0.8l0.2-5L1093,107.8z"/>
		<path class="st2" d="M1159.1,116.5l-1,4.9l-23.7-5l1-4.9L1159.1,116.5z"/>
		<path class="st2" d="M1222.2,141.8l-2.3,4.5l-21.6-10.9l2.3-4.5L1222.2,141.8z"/>
		<path class="st2" d="M1276.5,182.9l-3.3,3.7l-18.1-16.1l3.3-3.7L1276.5,182.9z"/>
		<path class="st2" d="M1319.9,234.6l-4,3l-14.5-19.5l4-3L1319.9,234.6z"/>
		<path class="st2" d="M1354.5,291.8l-4.4,2.4l-11.8-21.2l4.4-2.4L1354.5,291.8z"/>
		<path class="st2" d="M1383.4,351.3l-4.5,2.1l-10.2-22l4.6-2.1L1383.4,351.3z"/>
		<path class="st2" d="M1409.6,411.7l-4.6,2l-9.5-22.3l4.6-2L1409.6,411.7z"/>
		<path class="st2" d="M1435.5,471.3l-4.6,2l-9.8-22.2l4.6-2L1435.5,471.3z"/>
		<path class="st2" d="M1463.8,529.9l-4.5,2.3l-11-21.6l4.5-2.3L1463.8,529.9z"/>
		<path class="st2" d="M1497.8,587l-4.2,2.7l-13.2-20.3l4.2-2.7L1497.8,587z"/>
		<path class="st2" d="M1540.5,638.8l-3.7,3.4l-16.6-17.7l3.7-3.4L1540.5,638.8z"/>
		<path class="st2" d="M1594.2,680.1l-2.7,4.2l-20.4-13.1l2.7-4.2L1594.2,680.1z"/>
		<path class="st2" d="M1657.1,705.8l-1.5,4.8l-23.1-7.3l1.5-4.8L1657.1,705.8z"/>
		<path class="st2" d="M1723.9,716l-0.4,5l-24.2-2.1l0.4-5L1723.9,716z"/>
		<path class="st2" d="M1791,713.4l0.5,5l-24.1,2.5l-0.5-5L1791,713.4z"/>
		<path class="st2" d="M1856.3,694.2l1.9,4.7l-22.5,9l-1.9-4.7L1856.3,694.2z"/>
		<path class="st2" d="M1912.5,654.6l3.3,3.7l-18,16.2l-3.3-3.7L1912.5,654.6z"/>
		<path class="st2" d="M1951.7,598.3l4.4,2.4l-11.7,21.2l-4.4-2.4L1951.7,598.3z"/>
		<path class="st2" d="M1973,533.8l4.9,1.2l-5.8,23.5l-4.9-1.2L1973,533.8z"/>
		<path class="st2" d="M1979.5,466.7l5,0.2l-0.8,24.2l-5-0.2L1979.5,466.7z"/>
		<path class="st2" d="M1973.8,399.9l5-0.7l3.4,24l-5,0.7L1973.8,399.9z"/>
		<path class="st2" d="M1957.1,335l4.8-1.5l7.3,23.1l-4.8,1.5L1957.1,335z"/>
		<path class="st2" d="M1929.3,273.8l4.4-2.3l11.4,21.4l-4.4,2.3L1929.3,273.8z"/>
		<path class="st2" d="M1889.2,219.5l3.8-3.3l15.9,18.3l-3.8,3.3L1889.2,219.5z"/>
		<path class="st2" d="M1834.7,178.1l2.6-4.3l20.8,12.4l-2.6,4.3L1834.7,178.1z"/>
		<path class="st2" d="M1767.5,160.6l0.5-5l24.1,2.7l-0.5,5L1767.5,160.6z"/>
	</g>
</g>
<g id="Layer_2" class="st0">
	<g class="st1">
		<path class="st2" d="M329.5,156.4l1.7-4.7l22.8,8.1l-1.7,4.7L329.5,156.4z"/>
		<path class="st2" d="M260.5,151.2l-0.3-5l24.2-1.5l0.3,5L260.5,151.2z"/>
		<path class="st2" d="M195.8,178.2l-2.7-4.2l20.6-12.9l2.7,4.2L195.8,178.2z"/>
		<path class="st2" d="M149.2,229l-4-3l14.4-19.5l4,3L149.2,229z"/>
		<path class="st2" d="M120.7,291.3l-4.8-1.5l7.1-23.2l4.8,1.5L120.7,291.3z"/>
		<path class="st2" d="M110.2,357.8l-5-0.5l2.6-24.1l5,0.5L110.2,357.8z"/>
		<path class="st2" d="M108.8,424.4l-5,0.1l-0.5-24.2l5-0.1L108.8,424.4z"/>
		<path class="st2" d="M116,490.7l-5,0.8l-3.7-24l5-0.8L116,490.7z"/>
		<path class="st2" d="M133.3,555.5l-4.8,1.6l-7.6-23l4.8-1.6L133.3,555.5z"/>
		<path class="st2" d="M163.6,615.9l-4.3,2.6l-12.5-20.8l4.3-2.6L163.6,615.9z"/>
		<path class="st2" d="M209.8,666.1l-3.3,3.8l-18.2-16l3.3-3.8L209.8,666.1z"/>
		<path class="st2" d="M270.3,698.6l-1.9,4.6l-22.5-9.1l1.9-4.6L270.3,698.6z"/>
		<path class="st2" d="M337.1,711.5l-0.5,5l-24.1-2.7l0.5-5L337.1,711.5z"/>
		<path class="st2" d="M404.1,710.6l0.3,5l-24.2,1.3l-0.3-5L404.1,710.6z"/>
		<path class="st2" d="M470.2,700.8l1,4.9l-23.8,4.8l-1-4.9L470.2,700.8z"/>
		<path class="st2" d="M533.9,678.7l2,4.6l-22.3,9.6l-2-4.6L533.9,678.7z"/>
		<path class="st2" d="M590.5,641.1l3.1,3.9l-18.9,15.2l-3.1-3.9L590.5,641.1z"/>
		<path class="st2" d="M634.7,589.5l4.1,2.9l-14.3,19.6l-4.1-2.9L634.7,589.5z"/>
		<path class="st2" d="M666.6,530.3l4.5,2.1l-10.3,21.9l-4.5-2.1L666.6,530.3z"/>
		<path class="st2" d="M690.2,468.2l4.7,1.6l-8,22.9l-4.7-1.6L690.2,468.2z"/>
		<path class="st2" d="M709.4,406.3l4.8,1.5l-7,23.2l-4.8-1.5L709.4,406.3z"/>
		<path class="st2" d="M728.7,343.7l4.8,1.5l-7.3,23.1l-4.8-1.5L728.7,343.7z"/>
		<path class="st2" d="M751.7,281.5l4.6,1.9l-9.1,22.5l-4.6-1.9L751.7,281.5z"/>
		<path class="st2" d="M782.8,222.2l4.3,2.6l-12.5,20.8l-4.3-2.6L782.8,222.2z"/>
		<path class="st2" d="M826.6,170.3l3.5,3.6l-17.2,17.1l-3.5-3.6L826.6,170.3z"/>
		<path class="st2" d="M883.8,132.7l2.3,4.4l-21.5,11.3l-2.3-4.4L883.8,132.7z"/>
		<path class="st2" d="M948.9,112.8l1.1,4.9l-23.7,5.2l-1.1-4.9L948.9,112.8z"/>
		<path class="st2" d="M1015.9,107.1l0.2,5l-24.2,1l-0.2-5L1015.9,107.1z"/>
		<path class="st2" d="M1083.4,115.9l-1.1,4.9l-23.7-5.2l1.1-4.9L1083.4,115.9z"/>
		<path class="st2" d="M1145.5,145.5l-2.7,4.2l-20.5-12.9l2.7-4.2L1145.5,145.5z"/>
		<path class="st2" d="M1193.9,194.2l-3.9,3.2l-15.3-18.8l3.9-3.2L1193.9,194.2z"/>
		<path class="st2" d="M1227.9,252.7l-4.5,2.3l-10.9-21.6l4.5-2.3L1227.9,252.7z"/>
		<path class="st2" d="M1252.9,314.5l-4.7,1.7l-8.4-22.7l4.7-1.7L1252.9,314.5z"/>
		<path class="st2" d="M1273.7,377l-4.8,1.5l-7.5-23.1l4.8-1.5L1273.7,377z"/>
		<path class="st2" d="M1294,438.8l-4.8,1.6l-7.7-23l4.8-1.6L1294,438.8z"/>
		<path class="st2" d="M1317.1,499.8l-4.6,1.9l-9.1-22.5l4.6-1.9L1317.1,499.8z"/>
		<path class="st2" d="M1346.5,559.5l-4.4,2.4l-11.6-21.3l4.4-2.4L1346.5,559.5z"/>
		<path class="st2" d="M1385.4,614.2l-3.9,3.2l-15.3-18.8l3.9-3.2L1385.4,614.2z"/>
		<path class="st2" d="M1436,659.2l-3,4l-19.4-14.6l3-4L1436,659.2z"/>
		<path class="st2" d="M1496.2,690.3l-1.9,4.6l-22.3-9.4l1.9-4.6L1496.2,690.3z"/>
		<path class="st2" d="M1561.3,707.5l-1,4.9l-23.8-4.8l1-4.9L1561.3,707.5z"/>
		<path class="st2" d="M1627.8,714l-0.3,5l-24.2-1.4l0.3-5L1627.8,714z"/>
		<path class="st2" d="M1694.3,712.6l0.3,5l-24.2,1.5l-0.3-5L1694.3,712.6z"/>
		<path class="st2" d="M1760.3,701.8l1.1,4.9l-23.7,5.2l-1.1-4.9L1760.3,701.8z"/>
		<path class="st2" d="M1823.6,678.8l2,4.6l-22.2,9.8l-2-4.6L1823.6,678.8z"/>
		<path class="st2" d="M1880.3,641.6l3.1,3.9l-19,15l-3.1-3.9L1880.3,641.6z"/>
		<path class="st2" d="M1924.5,589.6l4.1,2.9l-13.8,19.9l-4.1-2.9L1924.5,589.6z"/>
		<path class="st2" d="M1951.1,526.7l4.8,1.5l-7.2,23.1l-4.8-1.5L1951.1,526.7z"/>
		<path class="st2" d="M1958.4,458.9l5,0.1l-0.4,24.2l-5-0.1L1958.4,458.9z"/>
		<path class="st2" d="M1947.5,391.9l4.9-1.2l5.8,23.5l-4.9,1.2L1947.5,391.9z"/>
		<path class="st2" d="M1920.9,329.7l4.4-2.3l11.2,21.5l-4.4,2.3L1920.9,329.7z"/>
		<path class="st2" d="M1881.1,275.1l3.8-3.2l15.6,18.5l-3.8,3.2L1881.1,275.1z"/>
		<path class="st2" d="M1830.9,230.2l3.1-3.9l19.1,14.9l-3.1,3.9L1830.9,230.2z"/>
		<path class="st2" d="M1773,196l2.3-4.5l21.6,11.1l-2.3,4.5L1773,196z"/>
		<path class="st2" d="M1710.2,172.5l1.5-4.8l23.1,7.3l-1.5,4.8L1710.2,172.5z"/>
	</g>
</g>
<g id="Layer_3">
	<path id="SVGID_x5F_1_x5F_" style="fill:none;" d="M1720.5,899.7c369.7-1.1,369,346.5,369,346.5s35.3,393-344.8,392.2
		c-368.2-0.8-397.3-369-397.3-369S1332.7,899,977.7,899.7c-371.3,0.7-369.7,369.7-369.7,369.7s13.6,370.4-376.4,369.7
		c-392.1-0.6-369.7-369.7-369.7-369.7s-30.3-321.6,315.4-365.8"/>
	<text>	<textPath  xlink:href="#SVGID_x5F_1_x5F_" startOffset="51.7776%">
	</textPath>
</text>
	<g>
		<g>
			<path class="st2" d="M1637.3,26.4l-33.3-2.1l0.3-4.1l33.3,2.1L1637.3,26.4z"/>
			<path class="st2" d="M1698.6,39l-32.3-8.1l1-3.9l32.3,8.1L1698.6,39z"/>
			<path class="st2" d="M1756.7,62.5l-30.4-13.8l1.7-3.7l30.4,13.8L1756.7,62.5z"/>
			<path class="st2" d="M1809.6,96l-27.4-19l2.3-3.3l27.4,19L1809.6,96z"/>
			<path class="st2" d="M1855.6,138.5l-23.5-23.6l2.9-2.9l23.5,23.6L1855.6,138.5z"/>
			<path class="st2" d="M1893.2,188.6l-18.9-27.5l3.4-2.3l18.9,27.5L1893.2,188.6z"/>
			<path class="st2" d="M1921.3,244.5l-13.7-30.4l3.7-1.7l13.7,30.4L1921.3,244.5z"/>
			<path class="st2" d="M1938.8,304.7l-7.9-32.4l4-1l7.9,32.4L1938.8,304.7z"/>
			<path class="st2" d="M1945.1,367l-2-33.3l4.1-0.2l2,33.3L1945.1,367z"/>
			<path class="st2" d="M1940.3,429.4l4-33.1l4,0.5l-4,33.1L1940.3,429.4z"/>
			<path class="st2" d="M1924.3,490l9.9-31.8l3.9,1.2l-9.9,31.8L1924.3,490z"/>
			<path class="st2" d="M1897.6,546.7l15.5-29.5l3.6,1.9l-15.5,29.5L1897.6,546.7z"/>
			<path class="st2" d="M1861.2,597.6l20.5-26.3l3.2,2.5l-20.5,26.3L1861.2,597.6z"/>
			<path class="st2" d="M1816.3,641.2l24.9-22.2l2.7,3l-24.9,22.2L1816.3,641.2z"/>
			<path class="st2" d="M1764.2,676.1l28.5-17.4l2.1,3.5l-28.5,17.4L1764.2,676.1z"/>
			<path class="st2" d="M1706.8,701l31.1-12l1.5,3.8l-31.1,12L1706.8,701z"/>
			<path class="st2" d="M1645.7,715.1l32.8-6.1l0.7,4l-32.8,6.1L1645.7,715.1z"/>
			<path class="st2" d="M1583.7,718.2l33.3-0.5l0.1,4.1l-33.3,0.5L1583.7,718.2z"/>
			<path class="st2" d="M1521.1,709.8l32.8,5.8l-0.7,4l-32.8-5.8L1521.1,709.8z"/>
			<path class="st2" d="M1461.5,690.5l31.3,11.6l-1.4,3.8l-31.3-11.6L1461.5,690.5z"/>
			<path class="st2" d="M1406.4,660.7l28.6,17.1l-2.1,3.5l-28.6-17.1L1406.4,660.7z"/>
			<path class="st2" d="M1357.5,621.5l25.1,21.9l-2.7,3.1l-25.1-21.9L1357.5,621.5z"/>
			<path class="st2" d="M1316.5,574.3l20.8,26.1l-3.2,2.5l-20.8-26.1L1316.5,574.3z"/>
			<path class="st2" d="M1284.5,520.4l15.8,29.4l-3.6,1.9l-15.8-29.4L1284.5,520.4z"/>
			<path class="st2" d="M1262.8,461.6l10.2,31.7l-3.9,1.2l-10.2-31.7L1262.8,461.6z"/>
			<path class="st2" d="M1252.1,399.9l4.3,33.1l-4,0.5l-4.3-33.1L1252.1,399.9z"/>
			<path class="st2" d="M1249.8,337.3l2.1,33.3l-4.1,0.3l-2.1-33.3L1249.8,337.3z"/>
			<path class="st2" d="M1234.2,274.1l9.8,31.9l-3.9,1.2l-9.8-31.9L1234.2,274.1z"/>
			<path class="st2" d="M1204.1,216.4l17.1,28.6l-3.5,2.1l-17.1-28.6L1204.1,216.4z"/>
			<path class="st2" d="M1161.3,167.3l23.3,23.8l-2.9,2.8l-23.3-23.8L1161.3,167.3z"/>
			<path class="st2" d="M1108.3,129.6l28.2,17.7l-2.2,3.4l-28.2-17.7L1108.3,129.6z"/>
			<path class="st2" d="M1047.8,105.4l31.6,10.5l-1.3,3.9l-31.6-10.5L1047.8,105.4z"/>
			<path class="st2" d="M983.3,96.2l33.2,2.8l-0.3,4.1l-33.2-2.8L983.3,96.2z"/>
			<path class="st2" d="M918.5,102.3l33-5l0.6,4l-33,5L918.5,102.3z"/>
			<path class="st2" d="M856.9,123.5l30.8-12.7l1.5,3.8l-30.8,12.7L856.9,123.5z"/>
			<path class="st2" d="M802.1,158.7l27-19.6l2.4,3.3l-27,19.6L802.1,158.7z"/>
			<path class="st2" d="M757,205.6l21.7-25.3l3.1,2.6l-21.7,25.3L757,205.6z"/>
			<path class="st2" d="M724.2,261.8l15.1-29.7l3.6,1.8l-15.1,29.7L724.2,261.8z"/>
			<path class="st2" d="M705.6,324.3l7.6-32.5l4,0.9l-7.6,32.5L705.6,324.3z"/>
			<path class="st2" d="M701.8,388.7l0.5-33.3l4.1,0.1l-0.5,33.3L701.8,388.7z"/>
			<path class="st2" d="M693.4,450.5l6-32.8l4,0.7l-6,32.8L693.4,450.5z"/>
			<path class="st2" d="M673.6,510l11.8-31.2l3.8,1.4l-11.8,31.2L673.6,510z"/>
			<path class="st2" d="M643.5,564.9l17.3-28.5l3.5,2.1L647,567L643.5,564.9z"/>
			<path class="st2" d="M604,613.5l22.1-25l3,2.7l-22.1,25L604,613.5z"/>
			<path class="st2" d="M556.4,654.2l26.2-20.6l2.5,3.2L559,657.4L556.4,654.2z"/>
			<path class="st2" d="M502.3,685.8l29.5-15.6l1.9,3.6l-29.5,15.6L502.3,685.8z"/>
			<path class="st2" d="M443.4,707.1l31.8-10l1.2,3.9l-31.8,10L443.4,707.1z"/>
			<path class="st2" d="M381.7,717.4l33.1-4.1l0.5,4l-33.1,4.1L381.7,717.4z"/>
			<path class="st2" d="M319.1,716.5l33.3,1.9l-0.2,4.1l-33.3-1.9L319.1,716.5z"/>
			<path class="st2" d="M257.6,704.4l32.4,7.8l-1,4l-32.4-7.8L257.6,704.4z"/>
			<path class="st2" d="M199.3,681.4l30.5,13.6l-1.7,3.7l-30.5-13.6L199.3,681.4z"/>
			<path class="st2" d="M146.2,648.3l27.5,18.8l-2.3,3.4l-27.5-18.8L146.2,648.3z"/>
			<path class="st2" d="M99.8,606.2l23.7,23.4l-2.9,2.9L97,609.1L99.8,606.2z"/>
			<path class="st2" d="M61.7,556.4l19.1,27.3l-3.3,2.3l-19.1-27.3L61.7,556.4z"/>
			<path class="st2" d="M33.2,500.7L47.1,531l-3.7,1.7l-13.9-30.3L33.2,500.7z"/>
			<path class="st2" d="M15.2,440.7l8.2,32.3l-3.9,1l-8.2-32.3L15.2,440.7z"/>
			<path class="st2" d="M8.4,378.4l2.3,33.3L6.5,412l-2.3-33.3L8.4,378.4z"/>
			<path class="st2" d="M12.7,316L9,349.1l-4-0.5l3.7-33.1L12.7,316z"/>
			<path class="st2" d="M28.1,255.3l-9.6,31.9l-3.9-1.2l9.6-31.9L28.1,255.3z"/>
			<path class="st2" d="M54.3,198.4L39.1,228l-3.6-1.9l15.2-29.7L54.3,198.4z"/>
			<path class="st2" d="M90.4,147.1l-20.3,26.5l-3.2-2.5l20.3-26.5L90.4,147.1z"/>
			<path class="st2" d="M134.9,103.1l-24.7,22.4l-2.7-3l24.7-22.4L134.9,103.1z"/>
			<path class="st2" d="M186.7,67.9l-28.3,17.6l-2.1-3.5l28.3-17.6L186.7,67.9z"/>
			<path class="st2" d="M243.9,42.5l-31,12.2l-1.5-3.8l31-12.2L243.9,42.5z"/>
			<path class="st2" d="M304.9,27.8l-32.7,6.4l-0.8-4l32.7-6.4L304.9,27.8z"/>
		</g>
	</g>
</g>
<g id="Layer_4" class="st0">
	<g class="st1">
		<g>
			<g>
				<path d="M1707.3,26.4l-33.3-2.1l0.3-4.1l33.3,2.1L1707.3,26.4z"/>
				<path d="M1768.6,39l-32.3-8.1l1-3.9l32.3,8.1L1768.6,39z"/>
				<path d="M1826.7,62.5l-30.4-13.8l1.7-3.7l30.4,13.8L1826.7,62.5z"/>
				<path d="M1879.6,96l-27.4-19l2.3-3.3l27.4,19L1879.6,96z"/>
				<path d="M1925.6,138.5l-23.5-23.6l2.9-2.9l23.5,23.6L1925.6,138.5z"/>
				<path d="M1963.2,188.6l-18.9-27.5l3.4-2.3l18.9,27.5L1963.2,188.6z"/>
				<path d="M1991.3,244.5l-13.7-30.4l3.7-1.7l13.7,30.4L1991.3,244.5z"/>
				<path d="M2008.8,304.7l-7.9-32.4l4-1l7.9,32.4L2008.8,304.7z"/>
				<path d="M2015.1,367l-2-33.3l4.1-0.2l2,33.3L2015.1,367z"/>
				<path d="M2010.3,429.4l4-33.1l4,0.5l-4,33.1L2010.3,429.4z"/>
				<path d="M1994.3,490l9.9-31.8l3.9,1.2l-9.9,31.8L1994.3,490z"/>
				<path d="M1967.6,546.7l15.5-29.5l3.6,1.9l-15.5,29.5L1967.6,546.7z"/>
				<path d="M1931.2,597.6l20.5-26.3l3.2,2.5l-20.5,26.3L1931.2,597.6z"/>
				<path d="M1886.3,641.2l24.9-22.2l2.7,3l-24.9,22.2L1886.3,641.2z"/>
				<path d="M1834.2,676.1l28.5-17.4l2.1,3.5l-28.5,17.4L1834.2,676.1z"/>
				<path d="M1776.8,701l31.1-12l1.5,3.8l-31.1,12L1776.8,701z"/>
				<path d="M1715.7,715.1l32.8-6.1l0.7,4l-32.8,6.1L1715.7,715.1z"/>
				<path d="M1653.7,718.2l33.3-0.5l0.1,4.1l-33.3,0.5L1653.7,718.2z"/>
				<path d="M1591.1,709.8l32.8,5.8l-0.7,4l-32.8-5.8L1591.1,709.8z"/>
				<path d="M1531.5,690.5l31.3,11.6l-1.4,3.8l-31.3-11.6L1531.5,690.5z"/>
				<path d="M1476.4,660.7l28.6,17.1l-2.1,3.5l-28.6-17.1L1476.4,660.7z"/>
				<path d="M1427.5,621.5l25.1,21.9l-2.7,3.1l-25.1-21.9L1427.5,621.5z"/>
				<path d="M1386.5,574.3l20.8,26.1l-3.2,2.5l-20.8-26.1L1386.5,574.3z"/>
				<path d="M1354.5,520.4l15.8,29.4l-3.6,1.9l-15.8-29.4L1354.5,520.4z"/>
				<path d="M1332.8,461.6l10.2,31.7l-3.9,1.2l-10.2-31.7L1332.8,461.6z"/>
				<path d="M1322.1,399.9l4.3,33.1l-4,0.5l-4.3-33.1L1322.1,399.9z"/>
				<path d="M1319.8,337.3l2.1,33.3l-4.1,0.3l-2.1-33.3L1319.8,337.3z"/>
				<path d="M1304.2,274.1l9.8,31.9l-3.9,1.2l-9.8-31.9L1304.2,274.1z"/>
				<path d="M1274.1,216.4l17.1,28.6l-3.5,2.1l-17.1-28.6L1274.1,216.4z"/>
				<path d="M1231.3,167.3l23.3,23.8l-2.9,2.8l-23.3-23.8L1231.3,167.3z"/>
				<path d="M1178.3,129.6l28.2,17.7l-2.2,3.4l-28.2-17.7L1178.3,129.6z"/>
				<path d="M1117.8,105.4l31.6,10.5l-1.3,3.9l-31.6-10.5L1117.8,105.4z"/>
				<path d="M1053.3,96.2l33.2,2.8l-0.3,4.1l-33.2-2.8L1053.3,96.2z"/>
				<path d="M988.5,102.3l33-5l0.6,4l-33,5L988.5,102.3z"/>
				<path d="M926.9,123.5l30.8-12.7l1.5,3.8l-30.8,12.7L926.9,123.5z"/>
				<path d="M872.1,158.7l27-19.6l2.4,3.3l-27,19.6L872.1,158.7z"/>
				<path d="M827,205.6l21.7-25.3l3.1,2.6l-21.7,25.3L827,205.6z"/>
				<path d="M794.2,261.8l15.1-29.7l3.6,1.8l-15.1,29.7L794.2,261.8z"/>
				<path d="M775.6,324.3l7.6-32.5l4,0.9l-7.6,32.5L775.6,324.3z"/>
				<path d="M771.8,388.7l0.5-33.3l4.1,0.1l-0.5,33.3L771.8,388.7z"/>
				<path d="M763.4,450.5l6-32.8l4,0.7l-6,32.8L763.4,450.5z"/>
				<path d="M743.6,510l11.8-31.2l3.8,1.4l-11.8,31.2L743.6,510z"/>
				<path d="M713.5,564.9l17.3-28.5l3.5,2.1L717,567L713.5,564.9z"/>
				<path d="M674,613.5l22.1-25l3,2.7l-22.1,25L674,613.5z"/>
				<path d="M626.4,654.2l26.2-20.6l2.5,3.2L629,657.4L626.4,654.2z"/>
				<path d="M572.3,685.8l29.5-15.6l1.9,3.6l-29.5,15.6L572.3,685.8z"/>
				<path d="M513.4,707.1l31.8-10l1.2,3.9l-31.8,10L513.4,707.1z"/>
				<path d="M451.7,717.4l33.1-4.1l0.5,4l-33.1,4.1L451.7,717.4z"/>
				<path d="M389.1,716.5l33.3,1.9l-0.2,4.1l-33.3-1.9L389.1,716.5z"/>
				<path d="M327.6,704.4l32.4,7.8l-1,4l-32.4-7.8L327.6,704.4z"/>
				<path d="M269.3,681.4l30.5,13.6l-1.7,3.7l-30.5-13.6L269.3,681.4z"/>
				<path d="M216.2,648.3l27.5,18.8l-2.3,3.4l-27.5-18.8L216.2,648.3z"/>
				<path d="M169.8,606.2l23.7,23.4l-2.9,2.9L167,609.1L169.8,606.2z"/>
				<path d="M131.7,556.4l19.1,27.3l-3.3,2.3l-19.1-27.3L131.7,556.4z"/>
				<path d="M103.2,500.7l13.9,30.3l-3.7,1.7l-13.9-30.3L103.2,500.7z"/>
				<path d="M85.2,440.7l8.2,32.3l-3.9,1l-8.2-32.3L85.2,440.7z"/>
				<path d="M78.4,378.4l2.3,33.3l-4.1,0.3l-2.3-33.3L78.4,378.4z"/>
				<path d="M82.7,316L79,349.1l-4-0.5l3.7-33.1L82.7,316z"/>
				<path d="M98.1,255.3l-9.6,31.9l-3.9-1.2l9.6-31.9L98.1,255.3z"/>
				<path d="M124.3,198.4L109.1,228l-3.6-1.9l15.2-29.7L124.3,198.4z"/>
				<path d="M160.4,147.1l-20.3,26.5l-3.2-2.5l20.3-26.5L160.4,147.1z"/>
				<path d="M204.9,103.1l-24.7,22.4l-2.7-3l24.7-22.4L204.9,103.1z"/>
				<path d="M256.7,67.9l-28.3,17.6l-2.1-3.5l28.3-17.6L256.7,67.9z"/>
				<path d="M313.9,42.5l-31,12.2l-1.5-3.8l31-12.2L313.9,42.5z"/>
				<path d="M374.9,27.8l-32.7,6.4l-0.8-4l32.7-6.4L374.9,27.8z"/>
			</g>
		</g>
	</g>
</g>
</svg>
