<?xml version="1.0" encoding="utf-8"?>
<!-- Generator: Adobe Illustrator 25.0.0, SVG Export Plug-In . SVG Version: 6.00 Build 0)  -->
<svg version="1.1" id="Layer_1" xmlns="http://www.w3.org/2000/svg" xmlns:xlink="http://www.w3.org/1999/xlink" x="0px" y="0px"
	 viewBox="0 0 124 143" style="enable-background:new 0 0 124 143;" xml:space="preserve">
<style type="text/css">
	.st0{fill:#FFFFFF;}
</style>
<g>
	<g>
		<g>
			<path class="st0" d="M57.7,138c-25.8,0-46.8-21-46.8-46.8c0-6,1.9-12.7,5.7-20.5c3.3-6.7,7.7-13.4,12.4-20.5l0.2-0.3
				C39.5,34.1,46,22.7,54,6.3C54.7,4.9,56.1,4,57.7,4c1.6,0,3,0.9,3.6,2.3c8,16.5,13.5,26.7,24.8,43.6c5.3,7.9,9.4,14.4,12.6,20.9
				c3.8,7.8,5.7,14.5,5.7,20.5C104.4,117.1,83.4,138,57.7,138z M57.6,17.2c-6.6,13-12.7,23.5-21.7,37.2l-0.2,0.3
				c-4.5,6.9-8.8,13.4-11.9,19.6C20.6,81,19,86.5,19,91.3c0,21.3,17.3,38.7,38.7,38.7c21.3,0,38.7-17.3,38.7-38.7
				c0-4.8-1.6-10.3-4.9-16.9c-3-6-7-12.3-12.1-19.9C69.6,39.8,64,30,57.6,17.2z"/>
		</g>
		<g>
			<g>
				<path class="st0" d="M70.7,33c3.4,5.9,7.2,11.9,12.1,19.1c4.7,7,9.1,13.9,12.3,20.4c0.7,1.4,1.3,2.8,1.9,4.2
					c-3.6,2-7.7,3.2-12.1,3.2c-13.5,0-24.4-10.9-24.4-24.4c0-3.4,1.2-6.9,3-10.7c1.8-3.7,4.4-7.6,7-11.6L70.7,33z"/>
			</g>
			<g>
				<path class="st0" d="M84.9,84c-15.7,0-28.4-12.8-28.4-28.4c0-3.7,1.1-7.8,3.4-12.5c1.9-3.9,4.5-7.8,7.2-11.9l0.2-0.4
					c0.8-1.2,2.1-1.9,3.5-1.8c1.4,0,2.7,0.8,3.4,2c3.4,5.8,7,11.6,11.9,18.9c5.3,7.9,9.4,14.4,12.6,20.9c0.7,1.5,1.4,3,2,4.4
					c0.8,1.9,0,4.1-1.7,5.1C94.7,82.7,89.9,84,84.9,84z M70.6,40.7c-1.3,2.1-2.4,4-3.4,6c-1.7,3.5-2.6,6.4-2.6,8.9
					c0,11.2,9.1,20.3,20.3,20.3c2.3,0,4.6-0.4,6.7-1.1c-0.1-0.1-0.1-0.3-0.2-0.4c-3-6-7-12.3-12.1-19.9C76,49.3,73.1,44.9,70.6,40.7
					z"/>
			</g>
		</g>
		<g>
			<path class="st0" d="M84.9,84c-15.7,0-28.4-12.8-28.4-28.4c0-3.7,1.1-7.8,3.4-12.5c1.9-3.9,4.5-7.8,7.2-11.9l0.1-0.2
				c5.9-9,9.6-15.4,14.1-24.7C81.9,4.9,83.4,4,84.9,4c1.6,0,3,0.9,3.6,2.3c4.5,9.3,7.6,15.1,14.1,24.7c3.1,4.6,5.5,8.4,7.3,12.1
				c2.3,4.7,3.4,8.8,3.4,12.5C113.4,71.2,100.6,84,84.9,84z M84.9,17.1c-3.2,6.2-6.5,11.6-10.9,18.3l-0.1,0.2c-2.6,3.9-5,7.6-6.7,11
				c-1.7,3.5-2.6,6.4-2.6,8.9c0,11.2,9.1,20.3,20.3,20.3c11.2,0,20.3-9.1,20.3-20.3c0-2.4-0.8-5.3-2.6-8.9
				c-1.7-3.4-3.9-6.9-6.8-11.2C91,28.2,88,23.1,84.9,17.1z"/>
		</g>
	</g>
</g>
</svg>
