<?xml version="1.0" encoding="utf-8"?>
<!-- Generator: Adobe Illustrator 25.0.0, SVG Export Plug-In . SVG Version: 6.00 Build 0)  -->
<svg version="1.1" id="Layer_1" xmlns="http://www.w3.org/2000/svg" xmlns:xlink="http://www.w3.org/1999/xlink" x="0px" y="0px"
	 viewBox="0 0 346.7 73" style="enable-background:new 0 0 346.7 73;" xml:space="preserve">
<style type="text/css">
	.st0{fill:#FFFFFF;}
</style>
<g>
	<g>
		<path class="st0" d="M25.5,73C11.4,73,0,61.6,0,47.5c0-3.3,1-6.9,3.1-11.2c1.8-3.6,4.2-7.3,6.7-11.2L10,25
			c5.7-8.6,9.2-14.8,13.5-23.8c0.4-0.8,1.1-1.2,2-1.2s1.6,0.5,2,1.2c4.4,9,7.3,14.5,13.5,23.8c2.9,4.3,5.1,7.9,6.9,11.4
			c2.1,4.2,3.1,7.9,3.1,11.2C51,61.6,39.5,73,25.5,73z M25.5,7.2c-3.6,7.1-6.9,12.8-11.8,20.2l-0.1,0.2c-2.5,3.8-4.8,7.3-6.5,10.7
			c-1.8,3.6-2.6,6.6-2.6,9.2c0,11.6,9.4,21.1,21.1,21.1s21.1-9.5,21.1-21.1c0-2.6-0.9-5.6-2.6-9.2c-1.6-3.3-3.8-6.7-6.6-10.9
			C32,19.5,29,14.2,25.5,7.2z"/>
		<g>
			<path class="st0" d="M32.6,15.8c1.9,3.2,3.9,6.5,6.6,10.4c2.6,3.8,5,7.5,6.7,11.1c0.4,0.8,0.7,1.5,1,2.3
				c-1.9,1.1-4.2,1.8-6.6,1.8c-7.3,0-13.3-6-13.3-13.3c0-1.8,0.6-3.8,1.6-5.8s2.4-4.1,3.8-6.3L32.6,15.8z"/>
			<path class="st0" d="M40.3,43.6c-8.5,0-15.5-7-15.5-15.5c0-2,0.6-4.2,1.9-6.8c1-2.1,2.4-4.2,3.9-6.5l0.1-0.2c0.4-0.6,1.1-1,1.9-1
				c0.8,0,1.5,0.4,1.8,1.1C36.3,17.9,38.3,21,41,25c2.9,4.3,5.1,7.9,6.9,11.4c0.4,0.8,0.8,1.6,1.1,2.4c0.4,1,0,2.2-0.9,2.8
				C45.7,42.9,43,43.6,40.3,43.6z M32.5,20c-0.7,1.1-1.3,2.2-1.9,3.2c-1,1.9-1.4,3.5-1.4,4.8c0,6.1,5,11.1,11.1,11.1
				c1.3,0,2.5-0.2,3.7-0.6c0-0.1-0.1-0.1-0.1-0.2c-1.6-3.3-3.8-6.7-6.6-10.9C35.5,24.7,33.9,22.3,32.5,20z"/>
		</g>
		<path class="st0" d="M40.3,43.6c-8.5,0-15.5-7-15.5-15.5c0-2,0.6-4.2,1.9-6.8c1-2.1,2.4-4.2,3.9-6.5l0.1-0.1
			c3.2-4.9,5.2-8.4,7.7-13.5c0.4-0.8,1.1-1.3,2-1.3s1.6,0.5,2,1.2c2.5,5.1,4.2,8.2,7.7,13.4c1.7,2.5,3,4.6,4,6.6
			c1.3,2.5,1.9,4.8,1.9,6.8C55.8,36.6,48.9,43.6,40.3,43.6z M40.3,7.1c-1.8,3.4-3.5,6.3-6,10l-0.1,0.1c-1.4,2.1-2.7,4.1-3.6,6
			c-1,1.9-1.4,3.5-1.4,4.8c0,6.1,5,11.1,11.1,11.1s11.1-5,11.1-11.1c0-1.3-0.5-2.9-1.4-4.8c-0.9-1.8-2.1-3.8-3.7-6.1
			C43.7,13.2,42,10.4,40.3,7.1z"/>
	</g>
	<g>
		<path class="st0" d="M71.3,10.2c0-1.4,1.1-2.5,2.4-2.5c1.4,0,2.5,1.1,2.5,2.5v17.2c2.2-3.6,5.6-6.5,11.3-6.5
			c8,0,12.7,5.4,12.7,13.3v18.4c0,1.4-1.1,2.5-2.4,2.5c-1.4,0-2.5-1.1-2.5-2.5V35.5c0-6.2-3.3-10-9.2-10c-5.7,0-9.9,4.2-9.9,10.4
			v16.8c0,1.4-1,2.5-2.4,2.5s-2.5-1.1-2.5-2.5C71.3,52.7,71.3,10.2,71.3,10.2z"/>
		<path class="st0" d="M104,64.3c-0.8-0.3-1.5-1-1.5-2.1c0-1.2,1-2.1,2.1-2.1c0.4,0,0.8,0.1,1.2,0.3c1,0.3,1.9,0.6,3.6,0.6
			c3.1,0,4.9-1.9,6.7-5.9l0.3-0.5l-13.8-29.4c-0.2-0.5-0.3-0.9-0.3-1.4c0-1.4,1.1-2.4,2.5-2.4c1.3,0,2.1,0.8,2.5,1.9l11.5,26
			L129,23.2c0.4-1,1.1-1.9,2.4-1.9c1.4,0,2.4,1.1,2.4,2.4c0,0.4-0.1,0.8-0.3,1.2l-12.9,30.9c-2.9,6.9-6.1,9.4-11.1,9.4
			C107.3,65.3,105.7,64.9,104,64.3z"/>
		<path class="st0" d="M167.1,52.7c0,1.4-1.1,2.5-2.4,2.5c-1.4,0-2.5-1.1-2.5-2.5v-4.5c-2.7,4-6.6,7.4-12.7,7.4
			c-7.9,0-15.8-6.3-15.8-17.2v-0.1c0-10.8,7.9-17.2,15.8-17.2c6.2,0,10.1,3.3,12.7,7V10.2c0-1.4,1-2.5,2.4-2.5s2.5,1.1,2.5,2.5V52.7
			z M138.6,38.2v0.1c0,7.8,5.4,12.8,11.7,12.8c6.2,0,12-5.2,12-12.8v-0.1c0-7.6-5.8-12.8-12-12.8C143.9,25.4,138.6,30.2,138.6,38.2z
			"/>
		<path class="st0" d="M172.7,23.9c0-1.4,1.1-2.5,2.4-2.5c1.4,0,2.5,1.1,2.5,2.5v6.2c2.4-5.5,7.2-8.9,11.4-8.9
			c1.5,0,2.4,1.1,2.4,2.5c0,1.4-0.9,2.3-2.2,2.5c-6.4,0.8-11.7,5.6-11.7,15.1v11.3c0,1.3-1,2.5-2.4,2.5s-2.5-1.1-2.5-2.5L172.7,23.9
			L172.7,23.9z"/>
		<path class="st0" d="M189.8,38.4v-0.1c0-9.4,7.3-17.3,17.3-17.3c9.9,0,17.2,7.8,17.2,17.2v0.1c0,9.4-7.4,17.3-17.4,17.3
			C197.1,55.6,189.8,47.8,189.8,38.4z M219.3,38.4v-0.1c0-7.1-5.3-13-12.3-13c-7.2,0-12.1,5.8-12.1,12.8v0.1
			c0,7.1,5.3,12.9,12.2,12.9C214.3,51.2,219.3,45.4,219.3,38.4z"/>
		<path class="st0" d="M228.4,10.2c0-1.4,1.1-2.5,2.4-2.5c1.4,0,2.5,1.1,2.5,2.5v42.5c0,1.4-1,2.5-2.4,2.5s-2.5-1.1-2.5-2.5V10.2z"
			/>
		<path class="st0" d="M237.3,38.4v-0.1c0-9.4,7.3-17.3,17.3-17.3c9.9,0,17.3,7.8,17.3,17.2v0.1c0,9.4-7.4,17.3-17.4,17.3
			C244.6,55.6,237.3,47.8,237.3,38.4z M266.8,38.4v-0.1c0-7.1-5.3-13-12.3-13c-7.2,0-12.1,5.8-12.1,12.8v0.1
			c0,7.1,5.3,12.9,12.2,12.9C261.8,51.2,266.8,45.4,266.8,38.4z"/>
		<path class="st0" d="M276.3,61.3c-0.8-0.4-1.3-1.2-1.3-2c0-1.1,1.1-2.2,2.2-2.2c0.5,0,0.8,0.1,1.1,0.3c3.5,2.3,7.4,3.6,11.7,3.6
			c7.3,0,12-4,12-11.8v-3.9c-2.9,3.8-6.9,7-13,7c-8,0-15.6-6-15.6-15.5v-0.1c0-9.7,7.7-15.6,15.6-15.6c6.2,0,10.3,3.1,13,6.7v-3.8
			c0-1.4,1-2.5,2.4-2.5s2.5,1.1,2.5,2.5v25.2c0,5.1-1.5,9-4.2,11.7c-3,3-7.4,4.4-12.6,4.4C285,65.2,280.4,63.9,276.3,61.3z
			 M302.2,36.7v-0.1c0-6.8-5.9-11.2-12.2-11.2s-11.5,4.4-11.5,11.2v0.1c0,6.7,5.3,11.3,11.5,11.3C296.3,47.9,302.2,43.4,302.2,36.7z
			"/>
		<path class="st0" d="M312,64.3c-0.8-0.3-1.5-1-1.5-2.1c0-1.2,1-2.1,2.1-2.1c0.5,0,0.8,0.1,1.2,0.3c1,0.3,1.9,0.6,3.6,0.6
			c3.1,0,4.9-1.9,6.7-5.9l0.3-0.5l-13.9-29.4c-0.2-0.5-0.3-0.9-0.3-1.4c0-1.4,1.1-2.4,2.5-2.4c1.4,0,2,0.8,2.5,1.9l11.5,26
			l10.3-26.1c0.4-1,1.1-1.9,2.4-1.9c1.4,0,2.4,1.1,2.4,2.4c0,0.4-0.1,0.8-0.3,1.2l-13,30.9c-2.9,6.9-6.1,9.4-11.1,9.4
			C315.2,65.3,313.6,64.9,312,64.3z"/>
	</g>
</g>
</svg>
